<svg width="24" height="24" viewBox="0 0 24 24" fill="none" xmlns="http://www.w3.org/2000/svg">
<path d="M4.61536 7.38461C4.84258 7.38461 14.5562 7.38461 19.3846 7.38461" stroke="currentColor" stroke-width="1.5" stroke-linecap="round"/>
<path d="M20 18.5V7.787C20 7.32766 19.8419 6.88232 19.5522 6.52582L17.9502 4.55411C17.6654 4.20355 17.2377 4 16.786 4H7.21396C6.76226 4 6.33462 4.20355 6.04978 4.55411L4.44777 6.52582C4.15811 6.88232 4 7.32766 4 7.787V18.5C4 19.3284 4.67157 20 5.5 20H18.5C19.3284 20 20 19.3284 20 18.5Z" stroke="currentColor" stroke-width="1.5"/>
<path d="M12 11V16M12 16L9.53845 13.5385M12 16L14.7692 13.5385" stroke="currentColor" stroke-width="1.5" stroke-linecap="round"/>
</svg>
