<svg width="24" height="24" viewBox="0 0 24 24" fill="none" xmlns="http://www.w3.org/2000/svg">
<path d="M4.14258 6.31C4.25933 6.14908 4.43519 6.0411 4.63152 6.00978C4.82784 5.97847 5.02857 6.02638 5.18958 6.143L19.6896 16.643C19.7724 16.6995 19.8431 16.7721 19.8973 16.8564C19.9516 16.9407 19.9885 17.0351 20.0057 17.1339C20.0229 17.2326 20.0201 17.3339 19.9975 17.4316C19.9748 17.5293 19.9329 17.6214 19.874 17.7026C19.8152 17.7838 19.7406 17.8524 19.6548 17.9043C19.569 17.9562 19.4737 17.9903 19.3744 18.0047C19.2752 18.0191 19.1741 18.0134 19.077 17.9881C18.98 17.9627 18.8891 17.9181 18.8096 17.857L16.5616 16.229C15.3456 17.19 13.7916 18 11.9996 18C10.0186 18 8.32958 17.008 7.06658 15.922C5.79658 14.832 4.87958 13.577 4.42958 12.9C4.2521 12.634 4.15738 12.3213 4.15738 12.0015C4.15738 11.6817 4.2521 11.369 4.42958 11.103C4.78258 10.57 5.42458 9.683 6.29758 8.798L4.30958 7.357C4.14866 7.24025 4.04068 7.06439 4.00937 6.86807C3.97805 6.67174 4.02597 6.47101 4.14258 6.31ZM5.67858 11.932C5.66451 11.9519 5.65684 11.9756 5.65658 12C5.65658 12.021 5.66258 12.045 5.67858 12.068C6.09058 12.689 6.92058 13.818 8.04458 14.785C9.17458 15.758 10.5266 16.5 11.9996 16.5C13.1946 16.5 14.3096 16.012 15.2896 15.309L13.0626 13.695C12.7249 13.9071 12.3316 14.0134 11.9331 14.0003C11.5346 13.9872 11.1491 13.8553 10.8261 13.6215C10.5031 13.3878 10.2574 13.0628 10.1205 12.6883C9.98351 12.3138 9.96162 11.907 10.0576 11.52L7.52858 9.688C6.83678 10.3707 6.21686 11.1227 5.67858 11.932ZM11.9996 7.5C11.4836 7.5 10.9826 7.59 10.5006 7.751C10.4065 7.78486 10.3065 7.79955 10.2066 7.79421C10.1067 7.78886 10.0089 7.76358 9.91894 7.71987C9.82896 7.67615 9.74864 7.61488 9.6827 7.53965C9.61677 7.46443 9.56654 7.37677 9.53499 7.28185C9.50344 7.18692 9.49119 7.08664 9.49898 6.98691C9.50676 6.88718 9.53442 6.79002 9.58032 6.70114C9.62622 6.61226 9.68943 6.53346 9.76625 6.46938C9.84306 6.40529 9.93191 6.35723 10.0276 6.328C10.6629 6.11284 11.3288 6.00207 11.9996 6C13.9806 6 15.6696 6.992 16.9326 8.078C18.2026 9.169 19.1196 10.423 19.5696 11.101C19.7472 11.3672 19.8419 11.68 19.8419 12C19.8419 12.32 19.7472 12.6328 19.5696 12.899C19.4596 13.065 19.3216 13.264 19.1596 13.486C19.1013 13.5654 19.028 13.6327 18.9438 13.6838C18.8596 13.7349 18.7661 13.7689 18.6688 13.7839C18.5714 13.7989 18.4721 13.7946 18.3764 13.7712C18.2807 13.7478 18.1905 13.7057 18.1111 13.6475C18.0316 13.5893 17.9644 13.5159 17.9133 13.4317C17.8622 13.3475 17.8282 13.2541 17.8132 13.1567C17.7982 13.0593 17.8025 12.96 17.8259 12.8643C17.8493 12.7686 17.8913 12.6784 17.9496 12.599C18.0976 12.398 18.2216 12.217 18.3206 12.069C18.3347 12.0489 18.3423 12.025 18.3423 12.0005C18.3423 11.976 18.3347 11.9521 18.3206 11.932C17.9086 11.311 17.0786 10.182 15.9546 9.215C14.8246 8.242 13.4726 7.5 11.9996 7.5Z" fill="currentColor"/>
</svg>
