<svg width="16" height="16" viewBox="0 0 16 16" fill="none" xmlns="http://www.w3.org/2000/svg">
<path d="m 12.130988,3.8368041 c 0.1405,0.14063 0.2194,0.33125 0.2194,0.53 0,0.19875 -0.0789,0.38937 -0.2194,0.53 0,0 -7.1796704,7.1797099 -7.2499804,7.2499599 -0.4782845,0.337104 -0.6862778,0.290768 -1.06,0 -0.3737222,-0.290768 -0.019811,-1.025771 -0.019811,-1.025771 L 11.070988,3.8368041 c 0.1406,-0.14045 0.3313,-0.21934 0.53,-0.21934 0.1988,0 0.3894,0.07889 0.53,0.21934 z" fill="currentColor" /><path d="m 12.130987,12.163196 c 0.1405,-0.14063 0.2194,-0.33125 0.2194,-0.53 0,-0.19875 -0.0789,-0.38937 -0.2194,-0.53 0,0 -7.1796692,-7.1797105 -7.2499792,-7.2499605 -0.4782845,-0.337104 -0.6862778,-0.290768 -1.06,0 -0.3737222,0.290768 -0.019811,1.025771 -0.019811,1.025771 l 7.2697902,7.2841895 c 0.1406,0.14045 0.3313,0.21934 0.53,0.21934 0.1988,0 0.3894,-0.07889 0.53,-0.21934 z" fill="currentColor" />
</svg>
