<svg width="24" height="24" viewBox="0 0 24 24" fill="none" xmlns="http://www.w3.org/2000/svg">
<path d="M12.53 8.97C12.3894 8.82955 12.1988 8.75066 12 8.75066C11.8012 8.75066 11.6106 8.82955 11.47 8.97L7.72 12.72C7.58752 12.8622 7.5154 13.0502 7.51882 13.2445C7.52225 13.4388 7.60097 13.6242 7.73838 13.7616C7.87579 13.899 8.06118 13.9777 8.25548 13.9812C8.44978 13.9846 8.63783 13.9125 8.78 13.78L11.25 11.31V18C11.25 18.1989 11.329 18.3897 11.4697 18.5303C11.6103 18.671 11.8011 18.75 12 18.75C12.1989 18.75 12.3897 18.671 12.5303 18.5303C12.671 18.3897 12.75 18.1989 12.75 18V11.31L15.22 13.78C15.3622 13.9125 15.5502 13.9846 15.7445 13.9812C15.9388 13.9777 16.1242 13.899 16.2616 13.7616C16.399 13.6242 16.4777 13.4388 16.4812 13.2445C16.4846 13.0502 16.4125 12.8622 16.28 12.72L12.53 8.97ZM16.25 6.75C16.4489 6.75 16.6397 6.67098 16.7803 6.53033C16.921 6.38968 17 6.19891 17 6C17 5.80109 16.921 5.61032 16.7803 5.46967C16.6397 5.32902 16.4489 5.25 16.25 5.25L7.75 5.25C7.55109 5.25 7.36032 5.32902 7.21967 5.46967C7.07902 5.61032 7 5.80109 7 6C7 6.19891 7.07902 6.38968 7.21967 6.53033C7.36032 6.67098 7.55109 6.75 7.75 6.75L16.25 6.75Z" fill="currentColor"/>
</svg>
