<svg width="24" height="24" viewBox="0 0 24 24" fill="none" xmlns="http://www.w3.org/2000/svg">
<path d="M12 9.49994C11.6649 9.47292 11.3278 9.51905 11.0122 9.63513C10.6967 9.75121 10.4101 9.93448 10.1723 10.1722C9.93459 10.41 9.75133 10.6966 9.63524 11.0122C9.51916 11.3277 9.47304 11.6648 9.50006 11.9999C9.47304 12.3351 9.51916 12.6721 9.63524 12.9877C9.75133 13.3033 9.93459 13.5899 10.1723 13.8276C10.4101 14.0654 10.6967 14.2487 11.0122 14.3648C11.3278 14.4808 11.6649 14.527 12 14.4999C12.3352 14.527 12.6722 14.4808 12.9878 14.3648C13.3034 14.2487 13.59 14.0654 13.8277 13.8276C14.0655 13.5899 14.2487 13.3033 14.3648 12.9877C14.4809 12.6721 14.527 12.3351 14.5 11.9999C14.527 11.6648 14.4809 11.3277 14.3648 11.0122C14.2487 10.6966 14.0655 10.41 13.8277 10.1722C13.59 9.93448 13.3034 9.75121 12.9878 9.63513C12.6722 9.51905 12.3352 9.47292 12 9.49994Z" fill="currentColor"/>
<path d="M20.1771 11.6775C20.0666 11.446 17.4116 6 12.0001 6C6.58857 6 3.93357 11.446 3.82307 11.6775L3.66907 12L3.82257 12.3225C3.93357 12.554 6.58857 18 12.0001 18C17.4116 18 20.0666 12.554 20.1771 12.3225L20.3311 12L20.1771 11.6775ZM12.0001 16.5C8.22957 16.5 5.97057 13.08 5.35007 12C5.97007 10.919 8.22857 7.5 12.0001 7.5C15.7716 7.5 18.0286 10.9185 18.6501 12C18.0286 13.0815 15.7696 16.5 12.0001 16.5Z" fill="currentColor"/>
</svg>
