<svg width="24" height="24" viewBox="0 0 24 24" fill="none" xmlns="http://www.w3.org/2000/svg">
<path d="M8.70845 18.9979C8.50844 19.2143 8.22975 19.3388 7.93466 19.3388C7.63957 19.3388 7.36088 19.2143 7.16087 18.9979L4.27556 15.8502C3.88539 15.424 3.91162 14.7584 4.34114 14.3682C4.77065 13.9781 5.43296 14.0043 5.82314 14.4338L6.88545 15.5912V5.6992C6.88545 5.11886 7.35432 4.64999 7.93466 4.64999C8.515 4.64999 8.98386 5.11886 8.98386 5.6992V15.5912L10.0462 14.4305C10.4364 14.0043 11.1019 13.9748 11.5282 14.365C11.9544 14.7551 11.9839 15.4207 11.5938 15.847L8.70845 18.9946V18.9979ZM13.1807 14.0928C13.1807 13.5125 13.6495 13.0436 14.2299 13.0436H18.4267C18.8497 13.0436 19.2333 13.2994 19.3972 13.6928C19.5612 14.0863 19.4693 14.5355 19.171 14.8371L16.7644 17.2404H18.4267C19.007 17.2404 19.4759 17.7093 19.4759 18.2896C19.4759 18.87 19.007 19.3388 18.4267 19.3388H14.2299C13.8069 19.3388 13.4233 19.0831 13.2594 18.6897C13.0954 18.2962 13.1872 17.847 13.4856 17.5454L15.8922 15.142H14.2299C13.6495 15.142 13.1807 14.6732 13.1807 14.0928ZM16.3283 4.64999C16.725 4.64999 17.089 4.87295 17.266 5.23033L19.3644 9.42715L19.889 10.4764C20.148 10.9944 19.9382 11.6239 19.4202 11.8829C18.9021 12.142 18.2726 11.9321 18.0136 11.4141L17.7775 10.9452H14.8791L14.643 11.4141C14.384 11.9321 13.7545 12.142 13.2364 11.8829C12.7184 11.6239 12.5085 10.9944 12.7676 10.4764L13.2922 9.42715L15.3906 5.23033C15.5676 4.87295 15.9316 4.64999 16.3283 4.64999ZM15.666 9.37141H16.9906L16.3283 8.04679L15.666 9.37141Z" fill="currentColor"/>
</svg>
