<svg width="24" height="24" viewBox="0 0 24 24" fill="none" xmlns="http://www.w3.org/2000/svg">
<path d="M8.70845 5.34099C8.50844 5.12459 8.22975 5 7.93466 5C7.63957 5 7.36088 5.12459 7.16087 5.34099L4.27556 8.4886C3.88539 8.91484 3.91162 9.58043 4.34114 9.9706C4.77065 10.3608 5.43296 10.3345 5.82314 9.90503L6.88545 8.74763V18.6397C6.88545 19.22 7.35432 19.6889 7.93466 19.6889C8.515 19.6889 8.98386 19.22 8.98386 18.6397V8.74763L10.0462 9.90831C10.4364 10.3345 11.1019 10.3641 11.5282 9.97388C11.9544 9.58371 11.9839 8.91812 11.5938 8.49188L8.70845 5.34427V5.34099ZM13.1807 14.4428C13.1807 15.0232 13.6495 15.492 14.2299 15.492H15.8922L13.4856 17.8987C13.184 18.2003 13.0954 18.6495 13.2594 19.0429C13.4233 19.4364 13.8036 19.6921 14.2299 19.6921H18.4267C19.007 19.6921 19.4759 19.2233 19.4759 18.6429C19.4759 18.0626 19.007 17.5937 18.4267 17.5937H16.7644L19.171 15.1871C19.4726 14.8855 19.5612 14.4363 19.3972 14.0428C19.2333 13.6494 18.8529 13.3936 18.4267 13.3936H14.2299C13.6495 13.3936 13.1807 13.8625 13.1807 14.4428ZM16.3283 5C15.9316 5 15.5676 5.22296 15.3906 5.58034L13.2922 9.77716L12.7676 10.8264C12.5085 11.3444 12.7184 11.9739 13.2364 12.233C13.7545 12.492 14.384 12.2821 14.643 11.7641L14.8791 11.2952H17.7775L18.0136 11.7641C18.2726 12.2821 18.9021 12.492 19.4202 12.233C19.9382 11.9739 20.148 11.3444 19.889 10.8264L19.3644 9.77716L17.266 5.58034C17.089 5.22296 16.725 5 16.3283 5ZM15.666 9.72142L16.3283 8.3968L16.9906 9.72142H15.666Z" fill="currentColor"/>
</svg>
