<svg width="24" height="24" viewBox="0 0 24 24" fill="none" xmlns="http://www.w3.org/2000/svg"><path d="M12 1c-.77 0-1.375.605-1.375 1.375S11.23 3.75 12 3.75s1.375-.605 1.375-1.375S12.77 1 12 1ZM5.125 3.75c-.77 0-1.375.605-1.375 1.375S4.355 6.5 5.125 6.5 6.5 5.895 6.5 5.125 5.895 3.75 5.125 3.75Zm13.75 0c-.77 0-1.375.605-1.375 1.375S18.105 6.5 18.875 6.5s1.375-.605 1.375-1.375-.605-1.375-1.375-1.375zM12 6.5c-3.025 0-5.5 2.475-5.5 5.5s2.475 5.5 5.5 5.5 5.5-2.475 5.5-5.5-2.475-5.5-5.5-5.5Zm-9.625 4.125C1.605 10.625 1 11.23 1 12s.605 1.375 1.375 1.375S3.75 12.77 3.75 12s-.605-1.375-1.375-1.375zm19.25 0c-.77 0-1.375.605-1.375 1.375s.605 1.375 1.375 1.375S23 12.77 23 12s-.605-1.375-1.375-1.375ZM5.125 17.5c-.77 0-1.375.605-1.375 1.375s.605 1.375 1.375 1.375S6.5 19.645 6.5 18.875 5.895 17.5 5.125 17.5Zm13.75 0c-.77 0-1.375.605-1.375 1.375s.605 1.375 1.375 1.375 1.375-.605 1.375-1.375-.605-1.375-1.375-1.375zM12 20.25c-.77 0-1.375.605-1.375 1.375S11.23 23 12 23s1.375-.605 1.375-1.375S12.77 20.25 12 20.25z" fill="currentColor" /></svg>
