<svg width="24" height="24" viewBox="0 0 24 24" fill="none" xmlns="http://www.w3.org/2000/svg">
<path d="M12 5C11.51 5 11.125 5.385 11.125 5.875C11.125 6.365 11.51 6.75 12 6.75C12.49 6.75 12.875 6.365 12.875 5.875C12.875 5.385 12.49 5 12 5ZM7.625 6.75C7.135 6.75 6.75 7.135 6.75 7.625C6.75 8.115 7.135 8.5 7.625 8.5C8.115 8.5 8.5 8.115 8.5 7.625C8.5 7.135 8.115 6.75 7.625 6.75ZM16.375 6.75C15.885 6.75 15.5 7.135 15.5 7.625C15.5 8.115 15.885 8.5 16.375 8.5C16.865 8.5 17.25 8.115 17.25 7.625C17.25 7.135 16.865 6.75 16.375 6.75ZM12 8.5C10.075 8.5 8.5 10.075 8.5 12C8.5 13.925 10.075 15.5 12 15.5C13.925 15.5 15.5 13.925 15.5 12C15.5 10.075 13.925 8.5 12 8.5ZM5.875 11.125C5.385 11.125 5 11.51 5 12C5 12.49 5.385 12.875 5.875 12.875C6.365 12.875 6.75 12.49 6.75 12C6.75 11.51 6.365 11.125 5.875 11.125ZM18.125 11.125C17.635 11.125 17.25 11.51 17.25 12C17.25 12.49 17.635 12.875 18.125 12.875C18.615 12.875 19 12.49 19 12C19 11.51 18.615 11.125 18.125 11.125ZM7.625 15.5C7.135 15.5 6.75 15.885 6.75 16.375C6.75 16.865 7.135 17.25 7.625 17.25C8.115 17.25 8.5 16.865 8.5 16.375C8.5 15.885 8.115 15.5 7.625 15.5ZM16.375 15.5C15.885 15.5 15.5 15.885 15.5 16.375C15.5 16.865 15.885 17.25 16.375 17.25C16.865 17.25 17.25 16.865 17.25 16.375C17.25 15.885 16.865 15.5 16.375 15.5ZM12 17.25C11.51 17.25 11.125 17.635 11.125 18.125C11.125 18.615 11.51 19 12 19C12.49 19 12.875 18.615 12.875 18.125C12.875 17.635 12.49 17.25 12 17.25Z" fill="currentColor"/>
</svg>
