<svg xmlns="http://www.w3.org/2000/svg" viewBox="0 0 236.18 102.3"><defs><style>.cls-1{fill:#cedc21}.cls-4{fill:#fff}</style></defs><path class="cls-1" d="M38.55 201.73a6 6 0 01-6-6v-90.29a6 6 0 0112 0v90.29a6 6 0 01-6 6z" transform="translate(-32.55 -99.43)"/><path d="M38.56 201.73A6 6 0 0136 190.31l36.18-17.17L35 145.76a6 6 0 117.11-9.66l45.24 33.33a6 6 0 01-1 10.25l-45.22 21.47a5.9 5.9 0 01-2.57.58z" transform="translate(-32.55 -99.43)" fill="#51b13e"/><path class="cls-1" d="M38.56 166.24A6 6 0 0135 155.41L72.16 128 36 110.86A6 6 0 1141.13 100l45.24 21.47a6 6 0 011 10.25l-45.26 33.35a6 6 0 01-3.55 1.17z" transform="translate(-32.55 -99.43)"/><path fill="#1e7a44" d="M12 38.46v25.38l17.21-12.68L12 38.46z"/><path class="cls-4" d="M0 27.82h12v29.25H0z"/><path class="cls-1" d="M44.55 105.44a6 6 0 00-12 0V181h12z" transform="translate(-32.55 -99.43)"/><path class="cls-4" d="M123.92 149.86c3.84 1.09 6 4.57 6 8.93 0 6.81-4.15 10-9.82 10h-12.96V132.4h11.43c5.56 0 9.87 2.65 9.87 9.56 0 3.48-1.44 6.7-4.52 7.9zm-5.3-.89c4.1 0 7.43-1.45 7.43-7.06s-3.43-7.17-7.59-7.17h-8.88V149zm1.3 17.41c4.15 0 7.48-2.18 7.48-7.59 0-5.82-3.79-7.58-8.52-7.58h-9.3v15.17zM154.21 132.4v2.23h-10v34.14h-2.44v-34.14h-10v-2.23zM171.3 131.88c6.19 0 11.8 3.12 13.57 10.55h-2.34c-1.66-6.08-6.55-8.32-11.28-8.32-8.57 0-13.09 7-13.09 16.47 0 10 4.52 16.37 13.14 16.37 5.1 0 9.67-2.29 11.44-9h2.33a13.6 13.6 0 01-13.77 11.33c-9.71 0-15.53-7.17-15.53-18.71 0-11.05 6.13-18.69 15.53-18.69zM203.36 132.4c6.29 0 10.86 4.1 10.86 12 0 7.48-4.57 12-10.86 12h-9.56v12.32h-2.39V132.4zm0 21.66c4.63 0 8.42-3 8.42-9.66s-3.64-9.71-8.42-9.71h-9.56v19.37zM214.64 168.77v-.31l14.49-36.16h1.1l14.34 36.16v.31H242l-4.1-10.5h-16.56l-4.1 10.5zm15-32.16L222.17 156h14.91zM266.13 132.4h2.6v.36l-11.33 20.89v15.12h-2.49v-15.12l-11.38-20.94v-.31h2.65l4.93 9.25 5 9.61 5-9.61z" transform="translate(-32.55 -99.43)"/></svg>
