<svg xmlns="http://www.w3.org/2000/svg" viewBox="0 0 105.46 188.47"><defs><style>.cls-1{fill:#cedc21}</style></defs><path class="cls-1" d="M117.24 247.32a11.06 11.06 0 01-11-11.06V69.91a11.06 11.06 0 1122.11 0v166.35a11.06 11.06 0 01-11.11 11.06z" transform="translate(-106.19 -58.85)"/><path d="M117.25 247.32a11.06 11.06 0 01-4.75-21l66.66-31.64-68.47-50.48a11.05 11.05 0 1113.11-17.8l83.35 61.41a11 11 0 01-1.82 18.88L122 246.25a10.94 10.94 0 01-4.75 1.07z" transform="translate(-106.19 -58.85)" fill="#51b13e"/><path class="cls-1" d="M117.25 181.93a11.05 11.05 0 01-6.56-20l68.47-50.45-66.66-31.59a11.05 11.05 0 019.48-20l83.35 39.56a11.05 11.05 0 011.82 18.89l-83.35 61.44a11 11 0 01-6.55 2.15z" transform="translate(-106.19 -58.85)"/><path fill="#1e7a44" d="M22.11 70.86v46.75l31.71-23.36-31.71-23.39z"/><path fill="#fff" d="M0 51.26h22.11v53.89H0z"/><path class="cls-1" d="M128.3 69.91a11.06 11.06 0 10-22.11 0V209h22.11z" transform="translate(-106.19 -58.85)"/></svg>
