<svg width="24" height="24" viewBox="0 0 24 24" fill="none" xmlns="http://www.w3.org/2000/svg">
<path fill-rule="evenodd" clip-rule="evenodd" d="M12.001 4.35C12.1522 4.3499 12.3004 4.39213 12.4289 4.4719C12.5573 4.55168 12.6609 4.66581 12.7278 4.80139L14.7601 8.92118L19.3065 9.58207C19.456 9.60379 19.5965 9.6669 19.712 9.76427C19.8276 9.86164 19.9135 9.98938 19.9603 10.1331C20.007 10.2768 20.0126 10.4306 19.9765 10.5774C19.9403 10.7241 19.8639 10.8577 19.7557 10.9633L16.4664 14.1705L17.2428 18.6974C17.2684 18.8464 17.2518 18.9995 17.1949 19.1395C17.138 19.2796 17.0431 19.4009 16.9209 19.4897C16.7986 19.5786 16.654 19.6315 16.5032 19.6424C16.3525 19.6534 16.2017 19.6219 16.0679 19.5516L12.001 17.4134L7.93415 19.5516C7.80045 19.6218 7.64978 19.6533 7.49916 19.6423C7.34854 19.6314 7.20397 19.5786 7.08177 19.4899C6.95958 19.4012 6.86462 19.2801 6.80762 19.1402C6.75063 19.0004 6.73387 18.8474 6.75923 18.6985L7.53675 14.1695L4.24524 10.9633C4.13679 10.8578 4.06004 10.724 4.02371 10.5772C3.98737 10.4303 3.9929 10.2762 4.03966 10.1323C4.08642 9.98842 4.17255 9.86051 4.28828 9.76307C4.40402 9.66563 4.54473 9.60256 4.69448 9.58099L9.24082 8.92118L11.2743 4.80139C11.3412 4.66581 11.4447 4.55168 11.5732 4.4719C11.7016 4.39213 11.8498 4.3499 12.001 4.35ZM12.001 6.99033L10.5054 10.0194C10.4473 10.137 10.3615 10.2388 10.2554 10.3159C10.1493 10.393 10.0261 10.4432 9.89631 10.4622L6.55189 10.9481L8.97085 13.3066C9.06496 13.3983 9.13537 13.5114 9.17601 13.6363C9.21665 13.7613 9.22629 13.8942 9.2041 14.0237L8.63392 17.354L11.6241 15.7817C11.7404 15.7206 11.8697 15.6887 12.001 15.6887C12.1323 15.6887 12.2617 15.7206 12.3779 15.7817L15.3692 17.354L14.7969 14.0237C14.7747 13.8942 14.7843 13.7613 14.825 13.6363C14.8656 13.5114 14.936 13.3983 15.0301 13.3066L17.4491 10.9492L14.1057 10.4633C13.9759 10.4443 13.8527 10.3941 13.7466 10.317C13.6405 10.2398 13.5548 10.1381 13.4967 10.0205L12.001 6.98925V6.99033Z" fill="currentColor"/>
</svg>
