<svg width="16" height="16" viewBox="0 0 16 16" fill="none" xmlns="http://www.w3.org/2000/svg">
<path fill-rule="evenodd" clip-rule="evenodd" d="M2.8 0a2 2 0 0 0-2 2v12a2 2 0 0 0 2 2h10.4a2 2 0 0 0 2-2V2a2 2 0 0 0-2-2H2.8Zm7.9 5.6H5.3a.5.5 0 0 1-.5-.5v-.6a.5.5 0 0 1 .5-.5h5.4a.5.5 0 0 1 .5.5v.6a.5.5 0 0 1-.5.5ZM5.3 7.2h5.4a.5.5 0 0 1 .5.5v.6a.5.5 0 0 1-.5.5H5.3a.5.5 0 0 1-.5-.5v-.6a.5.5 0 0 1 .5-.5Zm2.2 3.202H5.3a.5.5 0 0 0-.5.5v.6a.5.5 0 0 0 .5.5h2.2a.5.5 0 0 0 .5-.5v-.6a.5.5 0 0 0-.5-.5Z" fill="currentColor"/>
</svg>
