<svg width="24" height="24" viewBox="0 0 24 24" fill="none" xmlns="http://www.w3.org/2000/svg">
<path d="M11.8619 6.00239C11.8575 6.00419 11.0193 6.00783 9.99915 6.01047C7.84611 6.01602 7.78631 6.01682 7.69673 6.04013C7.60419 6.06423 7.48364 6.12503 7.40893 6.18527C7.34157 6.23959 7.2173 6.36842 7.13068 6.47367C7.11661 6.49074 7.09686 6.51324 7.08679 6.52364C7.07667 6.53407 7.07012 6.54258 7.07216 6.54258C7.07424 6.54258 7.06216 6.55685 7.04541 6.57432C7.01643 6.60446 6.93501 6.70267 6.85051 6.8094C6.82916 6.83634 6.80914 6.86016 6.80594 6.86236C6.80274 6.86456 6.76113 6.91493 6.71344 6.97429C6.66575 7.03365 6.60667 7.10596 6.58213 7.13502C6.55759 7.16404 6.49255 7.24282 6.43759 7.31006C6.38263 7.37733 6.32507 7.44752 6.30968 7.46607C6.29429 7.48466 6.2745 7.50996 6.26571 7.52235C6.25691 7.53474 6.2422 7.55409 6.23301 7.56536C6.20811 7.59594 6.14747 7.69923 6.12245 7.75375C6.11029 7.78014 6.09367 7.81611 6.08543 7.8337C6.06457 7.87835 6.01332 8.02157 6.0182 8.02157C6.02044 8.02157 6.01692 8.02968 6.0104 8.03964C5.99753 8.0593 5.99609 16.7879 6.00896 16.8915C6.02172 16.9942 6.0784 17.1702 6.12988 17.2672C6.18968 17.3798 6.24292 17.4631 6.25504 17.4631C6.25871 17.4631 6.26171 17.467 6.26171 17.4718C6.26171 17.4914 6.37963 17.6224 6.44119 17.6711C6.46613 17.6908 6.49799 17.7171 6.51202 17.7296C6.52605 17.7421 6.548 17.7577 6.56075 17.7645C6.57354 17.7711 6.59117 17.7833 6.59996 17.7914C6.63981 17.8286 6.89712 17.9429 6.98522 17.9626C6.99401 17.9646 7.02819 17.9735 7.06116 17.9824C7.12496 17.9995 16.2297 18.0075 16.7226 17.9908C16.9773 17.9822 17.0623 17.9621 17.2662 17.8626C17.3271 17.8329 17.4541 17.7514 17.4541 17.742C17.4541 17.7381 17.4589 17.7349 17.4649 17.7349C17.4804 17.7349 17.638 17.5834 17.6945 17.5144C17.8415 17.3344 17.9433 17.1131 17.9755 16.9035C17.9823 16.859 17.9853 15.7148 17.987 12.4527L17.9892 8.06174L17.9498 7.9539C17.9077 7.83874 17.8599 7.73433 17.8229 7.67705C17.7524 7.56768 17.7103 7.50408 17.699 7.48993C17.6921 7.48114 17.659 7.43889 17.6256 7.396C17.5922 7.35315 17.5618 7.31805 17.558 7.31805C17.5542 7.31805 17.549 7.31174 17.5465 7.30406C17.544 7.29639 17.5271 7.27388 17.5091 7.2541C17.4911 7.23431 17.4632 7.20193 17.4472 7.18214C17.4312 7.16236 17.4143 7.14257 17.4096 7.13817C17.405 7.13378 17.3859 7.10971 17.3671 7.08473C17.3483 7.05975 17.325 7.03097 17.3152 7.02077C17.3055 7.01058 17.2851 6.98608 17.27 6.96629C17.255 6.94651 17.2406 6.92852 17.2382 6.92632C17.2358 6.92412 17.2214 6.90613 17.2062 6.88635C17.1759 6.84673 17.1419 6.80524 17.0598 6.70739C17.0299 6.67173 16.9939 6.62852 16.9799 6.61142C16.652 6.21113 16.416 6.03501 16.1869 6.0197C16.0483 6.01043 11.8831 5.9938 11.8619 6.00239ZM15.7792 6.69088C15.9532 6.69624 15.999 6.70631 15.999 6.73925C15.999 6.74269 16.0126 6.75831 16.0291 6.77394C16.0457 6.78961 16.0671 6.81252 16.0767 6.82491C16.0863 6.8373 16.1456 6.90174 16.2085 6.96813C16.3078 7.07298 16.3512 7.11903 16.4747 7.25062C16.4879 7.26469 16.5093 7.28739 16.5222 7.3011L16.5457 7.32605H11.9949H7.4441L7.46649 7.29607C7.4788 7.2796 7.49539 7.25889 7.50338 7.2501C7.51138 7.2413 7.53296 7.21436 7.55135 7.19022C7.56974 7.16608 7.595 7.1349 7.60751 7.12091C7.61998 7.10692 7.62946 7.09428 7.62858 7.09285C7.6277 7.09141 7.64197 7.07402 7.66027 7.05423C7.67858 7.03445 7.69957 7.00834 7.70688 6.99627C7.7142 6.9842 7.72299 6.97429 7.72643 6.97429C7.72987 6.97429 7.7327 6.96889 7.7327 6.96229C7.7327 6.9557 7.7357 6.9503 7.73934 6.9503C7.74298 6.9503 7.76728 6.9228 7.7933 6.88922C7.81933 6.85561 7.85066 6.81691 7.86298 6.80328C7.87525 6.78961 7.90223 6.75564 7.92293 6.72782L7.96055 6.67721L11.8019 6.68197C13.9147 6.68457 15.7045 6.68856 15.7792 6.69088ZM13.3209 11.3473V12.0189L14.4653 12.0187C15.0947 12.0186 15.6111 12.02 15.6128 12.0217C15.6145 12.0234 15.5742 12.0657 15.5232 12.1157C15.4722 12.1658 15.3617 12.2787 15.2777 12.3666C15.1937 12.4545 15.1219 12.5256 15.1183 12.5245C15.1147 12.5234 15.1126 12.5267 15.1137 12.5318C15.1148 12.537 15.1076 12.5454 15.0977 12.5506C15.0878 12.5557 15.0822 12.5623 15.0851 12.5652C15.088 12.5681 15.0852 12.5708 15.079 12.5713C15.0728 12.5717 15.0047 12.6381 14.9278 12.7188C14.8508 12.7995 14.7836 12.8657 14.7784 12.8659C14.7731 12.8661 14.7663 12.8704 14.7631 12.8755C14.7596 12.8812 14.7609 12.8826 14.7667 12.879C14.7817 12.8697 14.7772 12.8786 14.7585 12.895C14.749 12.9034 14.7438 12.9057 14.747 12.9002C14.7605 12.8772 14.7434 12.8942 14.6877 12.959C14.6552 12.9968 14.6202 13.031 14.6098 13.0349C14.5995 13.0389 14.5933 13.0457 14.596 13.0501C14.5987 13.0545 14.5953 13.0581 14.5885 13.0581C14.5816 13.0581 14.576 13.0609 14.576 13.0643C14.576 13.0752 14.4684 13.182 14.4601 13.1793C14.4557 13.1779 14.4548 13.1794 14.4581 13.1827C14.4656 13.1902 14.4414 13.218 14.4274 13.218C14.4217 13.218 14.4145 13.2222 14.4114 13.2272C14.4076 13.2334 14.4092 13.2343 14.4161 13.23C14.423 13.2257 14.4247 13.2266 14.4209 13.2328C14.4178 13.2378 14.4107 13.242 14.4051 13.242C14.3995 13.242 14.3845 13.2554 14.3716 13.2718C14.3392 13.313 14.3042 13.3495 14.3042 13.3421C14.3042 13.3387 14.2989 13.3404 14.2923 13.3458C14.2857 13.3513 14.2825 13.3592 14.2851 13.3634C14.2877 13.3676 14.2823 13.3729 14.2731 13.3753C14.264 13.3777 14.2573 13.382 14.2584 13.3848C14.2606 13.3904 14.1625 13.4882 14.1537 13.4892C14.1508 13.4895 14.1482 13.4943 14.148 13.4998C14.1478 13.5053 14.1424 13.5086 14.136 13.5071C14.1296 13.5057 14.127 13.5071 14.1302 13.5104C14.138 13.5181 14.1207 13.539 14.1114 13.5332C14.1075 13.5308 14.1043 13.5339 14.1043 13.5401C14.1043 13.5579 14.0362 13.629 14.0254 13.6224C14.0202 13.6192 14.0165 13.6195 14.0172 13.6231C14.0206 13.6428 14.0154 13.651 14.0027 13.6462C13.9951 13.6432 13.9915 13.6435 13.9947 13.6466C14.002 13.654 13.9774 13.6817 13.9637 13.6817C13.958 13.6817 13.9508 13.6859 13.9477 13.6909C13.9438 13.6972 13.9456 13.698 13.9532 13.6934C13.9628 13.6876 13.9628 13.6886 13.9533 13.7003C13.9472 13.7079 13.9407 13.7126 13.939 13.7109C13.9372 13.7091 13.8955 13.7495 13.8462 13.8005C13.7969 13.8516 13.7539 13.8925 13.7506 13.8915C13.7473 13.8904 13.7454 13.8923 13.7464 13.8956C13.7495 13.9053 13.7181 13.9384 13.6986 13.946C13.6887 13.95 13.6806 13.9586 13.6806 13.9653C13.6806 13.972 13.6763 13.9775 13.6711 13.9775C13.6615 13.9775 13.6168 14.0165 13.6166 14.0249C13.6164 14.035 13.4203 14.2291 13.4128 14.2266C13.4084 14.2252 13.4075 14.2267 13.4108 14.23C13.4191 14.2383 13.3927 14.2661 13.3825 14.2599C13.378 14.2571 13.3766 14.2584 13.3793 14.2628C13.3857 14.2732 13.3419 14.3154 13.333 14.3074C13.3294 14.304 13.3286 14.3053 13.3314 14.3102C13.3342 14.3151 13.3286 14.3259 13.3188 14.3342C13.3014 14.349 13.3013 14.349 13.3128 14.3333C13.3192 14.3245 13.2873 14.356 13.242 14.4032C13.1966 14.4505 13.1446 14.5023 13.1263 14.5183C13.108 14.5343 13.0984 14.5445 13.105 14.541C13.1116 14.5375 13.1066 14.5458 13.0939 14.5595C13.0812 14.5731 13.067 14.5836 13.0623 14.5827C13.0576 14.5818 13.0535 14.5865 13.0531 14.5931C13.0527 14.5997 13.0477 14.6041 13.0421 14.6029C13.0365 14.6017 13.0338 14.6037 13.036 14.6073C13.0399 14.6136 12.9957 14.6609 12.9857 14.6611C12.9737 14.6615 12.9614 14.6751 12.9662 14.6828C12.9694 14.688 12.9679 14.6892 12.9623 14.6857C12.957 14.6825 12.9508 14.6858 12.9479 14.6934C12.945 14.7009 12.9262 14.7218 12.9059 14.7399C12.82 14.8171 12.7533 14.8843 12.7533 14.8935C12.7533 14.899 12.7422 14.9127 12.7287 14.9241C12.7151 14.9355 12.7067 14.9448 12.7099 14.9448C12.7131 14.9448 12.7093 14.952 12.7013 14.9608C12.6934 14.9696 12.6818 14.9768 12.6756 14.9768C12.6694 14.9768 12.666 14.9795 12.668 14.9828C12.67 14.9861 12.6625 14.9957 12.6512 15.0042C12.6399 15.0126 12.6337 15.0147 12.6373 15.0089C12.6416 15.0019 12.6407 15.0002 12.6346 15.004C12.6295 15.0071 12.6254 15.0155 12.6254 15.0226C12.6254 15.0297 12.6228 15.0329 12.6198 15.0298C12.6133 15.0233 12.4095 15.2241 12.4095 15.237C12.4095 15.2505 12.3572 15.2976 12.3497 15.2908C12.346 15.2874 12.3453 15.2887 12.3482 15.2937C12.351 15.2987 12.348 15.3072 12.3415 15.3127C12.3349 15.3181 12.3296 15.3201 12.3296 15.3173C12.3296 15.3143 12.3245 15.3166 12.3184 15.3223C12.3123 15.3279 12.3089 15.3353 12.3109 15.3386C12.3129 15.3418 12.3113 15.3446 12.3075 15.3446C12.3035 15.3446 12.2305 15.4124 12.1451 15.4953C12.0103 15.6264 11.9886 15.6444 11.9801 15.6332C11.9747 15.6262 11.9702 15.6236 11.97 15.6275C11.9699 15.6315 11.9615 15.6257 11.9512 15.6147C11.941 15.6036 11.923 15.5883 11.9112 15.5806C11.8903 15.5669 11.8801 15.5459 11.8999 15.5572C11.9056 15.5606 11.907 15.5599 11.9032 15.5557C11.8995 15.5517 11.8946 15.5484 11.8923 15.5484C11.8899 15.5484 11.8435 15.503 11.789 15.4475C11.7345 15.392 11.69 15.3484 11.69 15.3506C11.69 15.3528 11.6846 15.3501 11.6781 15.3446C11.6715 15.3392 11.6681 15.3316 11.6705 15.3278C11.6729 15.3239 11.67 15.3226 11.664 15.3249C11.6517 15.3296 11.6071 15.2838 11.6136 15.2732C11.616 15.2695 11.6116 15.2615 11.604 15.2555C11.5911 15.2455 11.591 15.2458 11.6021 15.2603C11.6087 15.2689 11.5601 15.2208 11.4941 15.1536C11.4282 15.0863 11.373 15.028 11.3715 15.024C11.3701 15.02 11.3636 15.0168 11.3572 15.0168C11.3448 15.0168 11.2255 14.8999 11.2282 14.8904C11.2294 14.8861 11.1192 14.7763 11.0049 14.668C10.9995 14.663 10.9978 14.6561 11.0009 14.6527C11.0039 14.6493 11.002 14.649 10.9966 14.6522C10.9833 14.6598 10.8712 14.549 10.8792 14.5361C10.8826 14.5306 10.8816 14.5288 10.8769 14.5317C10.8724 14.5345 10.8619 14.529 10.8536 14.5196C10.8454 14.5101 10.8433 14.5051 10.8489 14.5085C10.8546 14.5118 10.8246 14.4809 10.7822 14.4399C10.7398 14.3988 10.7 14.3623 10.6938 14.3588C10.6875 14.3552 10.6845 14.3488 10.6871 14.3446C10.6897 14.3403 10.6871 14.3378 10.6813 14.339C10.6755 14.3402 10.6717 14.3365 10.6729 14.3307C10.6741 14.3247 10.6712 14.3225 10.6663 14.3255C10.6543 14.3329 10.5758 14.2525 10.5834 14.2404C10.5868 14.2349 10.5858 14.233 10.5812 14.2358C10.5747 14.2398 10.5365 14.2061 10.5398 14.1993C10.5403 14.1982 10.4801 14.1382 10.4059 14.0658C10.2411 13.9053 10.2517 13.9159 10.271 13.9299C10.2858 13.9406 10.2861 13.9404 10.276 13.9275C10.27 13.9198 10.2608 13.9135 10.2556 13.9135C10.2436 13.9135 10.1991 13.8665 10.192 13.8464C10.1891 13.8381 10.1849 13.8331 10.1827 13.8353C10.179 13.8389 10.0729 13.7333 10.0384 13.6917C10.0303 13.6818 10.019 13.6737 10.0134 13.6737C10.0077 13.6737 10.0032 13.6685 10.0032 13.6622C10.0032 13.6558 9.99899 13.6481 9.99392 13.645C9.98768 13.6411 9.98684 13.6429 9.99136 13.6505C9.99504 13.6567 9.98572 13.6498 9.97061 13.6352C9.95554 13.6207 9.94319 13.6045 9.94319 13.5993C9.94319 13.594 9.93959 13.5897 9.9352 13.5896C9.92233 13.5895 9.88335 13.552 9.88811 13.5444C9.89047 13.5406 9.88947 13.5384 9.88583 13.5395C9.8786 13.5418 9.57976 13.2417 9.57956 13.232C9.57948 13.2287 9.57384 13.226 9.56697 13.226C9.56013 13.226 9.55674 13.2224 9.55945 13.218C9.56217 13.2136 9.55913 13.21 9.5527 13.21C9.54622 13.21 9.51217 13.1779 9.47695 13.1387C9.44174 13.0995 9.4114 13.0689 9.40952 13.0708C9.40768 13.0727 9.39924 13.0662 9.39085 13.0563C9.37574 13.0386 9.37574 13.0385 9.39157 13.0502C9.40636 13.0612 9.40676 13.0611 9.39661 13.0481C9.39057 13.0404 9.3813 13.0341 9.37598 13.0341C9.36603 13.0341 9.32989 12.9996 9.33353 12.9936C9.33469 12.9917 9.31446 12.9691 9.2886 12.9433C9.26274 12.9175 9.24451 12.9011 9.24807 12.9069C9.2583 12.9235 9.20534 12.8833 9.19219 12.8645C9.18571 12.8553 9.18259 12.8441 9.18527 12.8398C9.18803 12.8353 9.18611 12.8343 9.18087 12.8376C9.1758 12.8407 9.16976 12.8386 9.16752 12.8328C9.16524 12.827 8.98533 12.6428 8.76768 12.4234C8.55003 12.204 8.37323 12.0232 8.37479 12.0216C8.37638 12.0201 8.89267 12.0188 9.52216 12.0188H10.6667V11.3473V10.6758H11.9938H13.3209V11.3473Z" fill="currentColor"/>
</svg>
