<svg width="21" height="18" viewBox="0 0 21 18" fill="none" xmlns="http://www.w3.org/2000/svg">
<path d="M7.63754 1.10861L0.578503 8.16764C0.119666 8.62648 0.119666 9.37121 0.578503 9.83122L7.63754 16.8902C8.09637 17.3491 8.8411 17.3491 9.30111 16.8902C9.53053 16.6608 9.64583 16.3608 9.64583 16.0585C9.64583 15.7561 9.53053 15.4561 9.30111 15.2267L4.25038 10.1759H19.0579C19.7085 10.1759 20.2344 9.65004 20.2344 8.99943C20.2344 8.34882 19.7085 7.82293 19.0579 7.82293L4.25038 7.82293L9.30111 2.77219C9.53053 2.54277 9.64583 2.24276 9.64583 1.9404C9.64583 1.63804 9.53053 1.33803 9.30111 1.10861C8.84228 0.649771 8.09755 0.649771 7.63754 1.10861Z" fill="currentColor" />
</svg>
