<svg width="24" height="24" viewBox="0 0 24 24" fill="none" xmlns="http://www.w3.org/2000/svg">
<path d="M11.67 19.545C11.4591 19.7557 11.1731 19.874 10.875 19.874C10.5769 19.874 10.2909 19.7557 10.08 19.545L3.705 13.17C3.49433 12.9591 3.37599 12.6731 3.37599 12.375C3.37599 12.0769 3.49433 11.7909 3.705 11.58L10.08 5.205C10.2934 5.00638 10.5755 4.89823 10.8669 4.90326C11.1584 4.9083 11.4366 5.02613 11.643 5.232C11.8489 5.4384 11.9667 5.71658 11.9717 6.00805C11.9768 6.29953 11.8686 6.58161 11.67 6.795L7.215 11.25L18.375 11.25C18.6734 11.25 18.9595 11.3685 19.1705 11.5795C19.3815 11.7905 19.5 12.0766 19.5 12.375C19.5 12.6734 19.3815 12.9595 19.1705 13.1705C18.9595 13.3815 18.6734 13.5 18.375 13.5L7.215 13.5L11.67 17.955C11.8807 18.1659 11.999 18.4519 11.999 18.75C11.999 19.0481 11.8807 19.3341 11.67 19.545Z" fill="currentColor"/>
</svg>
