<svg width="16" height="16" viewBox="0 0 16 16" fill="none" xmlns="http://www.w3.org/2000/svg">
<path fill-rule="evenodd" clip-rule="evenodd" d="M13.7808 4.21934C13.9213 4.35997 14.0002 4.55059 14.0002 4.74934C14.0002 4.94809 13.9213 5.13871 13.7808 5.27934L6.53082 12.5293C6.3902 12.6698 6.19957 12.7487 6.00082 12.7487C5.80207 12.7487 5.61145 12.6698 5.47082 12.5293L2.22082 9.27934C2.08834 9.13717 2.01622 8.94912 2.01965 8.75482C2.02308 8.56052 2.10179 8.37513 2.2392 8.23772C2.37661 8.10031 2.562 8.02159 2.7563 8.01816C2.9506 8.01474 3.13865 8.08686 3.28082 8.21934L6.00082 10.9393L12.7208 4.21934C12.8614 4.07889 13.0521 4 13.2508 4C13.4496 4 13.6402 4.07889 13.7808 4.21934Z" fill="currentColor"/>
</svg>
