<svg width="16" height="16" viewBox="0 0 16 16" fill="none" xmlns="http://www.w3.org/2000/svg">
<path d="M9.38526 8.08753L15.5498 1.85558C15.9653 1.43545 15.9653 0.805252 15.5498 0.385121C15.1342 -0.0350102 14.5108 -0.0350102 14.0952 0.385121L7.93072 6.61707L1.76623 0.315098C1.35065 -0.105033 0.727273 -0.105033 0.311688 0.315098C-0.103896 0.73523 -0.103896 1.36543 0.311688 1.78556L6.47618 8.0175L0.311688 14.2495C-0.103896 14.6696 -0.103896 15.2998 0.311688 15.7199C0.519481 15.93 0.796499 16 1.07355 16C1.35061 16 1.62769 15.93 1.83548 15.7199L7.99997 9.48797L14.1645 15.7199C14.3722 15.93 14.6493 16 14.9264 16C15.2034 16 15.4805 15.93 15.6883 15.7199C16.1039 15.2998 16.1039 14.6696 15.6883 14.2495L9.38526 8.08753Z" fill="currentColor"/>
</svg>
