<svg width="16" height="16" viewBox="0 0 16 16" fill="none" xmlns="http://www.w3.org/2000/svg">
<path fill-rule="evenodd" clip-rule="evenodd" d="M8 16A8 8 0 1 0 7.998-.002 8 8 0 0 0 8 16Zm-.336-8.032.773-.616c.258-.203.437-.414.546-.624a1.43 1.43 0 0 0 .172-.71c0-.32-.094-.578-.297-.758-.202-.18-.483-.273-.85-.273s-.664.094-.882.289c-.203.195-.312.46-.312.804 0 .255-.194.489-.449.47l-.728-.053a.458.458 0 0 1-.435-.4 2.521 2.521 0 0 1-.012-.244c0-.655.258-1.178.765-1.568.523-.383 1.21-.578 2.076-.578.913 0 1.616.187 2.115.57.492.374.742.905.742 1.592 0 .765-.367 1.452-1.093 2.068l-.679.57a1.375 1.375 0 0 0-.28.312.738.738 0 0 0-.071.351.36.36 0 0 1-.36.36h-.78a.5.5 0 0 1-.5-.5v-.023c0-.235.048-.43.133-.586a1.82 1.82 0 0 1 .406-.453Zm-.406 4.036a.97.97 0 0 0 .726.288c.305 0 .547-.093.734-.288a.988.988 0 0 0 .289-.734c0-.304-.094-.546-.289-.742-.187-.195-.43-.288-.734-.288a.97.97 0 0 0-.726.288 1.019 1.019 0 0 0-.28.742c0 .296.093.539.28.734Z" fill="currentColor"/>
</svg>
