<svg width="24" height="24" viewBox="0 0 24 24" fill="none" xmlns="http://www.w3.org/2000/svg">
<path fill-rule="evenodd" clip-rule="evenodd" d="M12 21C16.9698 21 21 16.9698 21 12C21 7.03024 16.9698 3 12 3C7.03024 3 3 7.03024 3 12C3 16.9698 7.03024 21 12 21ZM11.6224 11.9646L12.4916 11.2709C12.7814 11.0426 12.9833 10.8055 13.1063 10.5685C13.238 10.3314 13.2994 10.068 13.2994 9.76943C13.2994 9.40943 13.1941 9.11968 12.9658 8.91773C12.7375 8.71578 12.4214 8.61041 12.0087 8.61041C11.596 8.61041 11.2624 8.71578 11.0165 8.93529C10.7882 9.1548 10.6653 9.45334 10.6653 9.83968C10.6653 10.1274 10.4479 10.3896 10.1609 10.3688L9.29491 10.306C9.07189 10.2899 8.88238 10.128 8.85763 9.90576C8.84518 9.79403 8.83896 9.68747 8.83896 9.58504C8.83896 8.84748 9.12872 8.25919 9.69945 7.82017C10.2877 7.38992 11.0604 7.17041 12.0351 7.17041C13.0624 7.17041 13.8526 7.38114 14.4146 7.81139C14.9677 8.23285 15.2487 8.82992 15.2487 9.60261C15.2487 10.4631 14.836 11.2358 14.0194 11.9294L13.2555 12.5704C13.1063 12.7021 13.0009 12.8163 12.9394 12.9216C12.8868 13.0182 12.8604 13.1499 12.8604 13.3168C12.8604 13.5398 12.6796 13.7207 12.4565 13.7207H11.5165C11.2404 13.7207 11.0165 13.4968 11.0165 13.2207V13.1324C11.0165 12.8689 11.0692 12.6494 11.1658 12.4738C11.2712 12.2982 11.4204 12.1314 11.6224 11.9646ZM11.1658 16.5041C11.3765 16.7236 11.6575 16.8289 11.9824 16.8289C12.3248 16.8289 12.597 16.7236 12.8077 16.5041C13.0273 16.2846 13.1326 16.0124 13.1326 15.6787C13.1326 15.3363 13.0273 15.0641 12.8077 14.8446C12.597 14.625 12.3248 14.5197 11.9824 14.5197C11.6575 14.5197 11.3765 14.625 11.1658 14.8446C10.9551 15.0641 10.8497 15.3363 10.8497 15.6787C10.8497 16.0124 10.9551 16.2846 11.1658 16.5041Z" fill="currentColor"/>
</svg>
