<svg width="24" height="24" viewBox="0 0 24 24" fill="none" xmlns="http://www.w3.org/2000/svg">
<path fill-rule="evenodd" clip-rule="evenodd" d="M10.5 9.5C10.5003 8.65387 10.769 7.82965 11.2673 7.14583C11.7657 6.46202 12.468 5.95384 13.2733 5.69436C14.0787 5.43488 14.9456 5.43748 15.7494 5.70176C16.5532 5.96605 17.2525 6.47842 17.7467 7.1652C18.2409 7.85198 18.5047 8.6778 18.4999 9.52392C18.4952 10.37 18.2223 11.1929 17.7205 11.8741C17.2186 12.5553 16.5137 13.0599 15.707 13.3152C14.9003 13.5705 14.0334 13.5634 13.231 13.295C13.0989 13.2507 12.9571 13.2441 12.8214 13.2759C12.6858 13.3077 12.5617 13.3766 12.463 13.475L11.44 14.5H10.25C10.0511 14.5 9.86032 14.579 9.71967 14.7197C9.57902 14.8603 9.5 15.0511 9.5 15.25V16.44L9.44 16.5H8.25C8.05109 16.5 7.86032 16.579 7.71967 16.7197C7.57902 16.8603 7.5 17.0511 7.5 17.25V18.44L7.44 18.5H5.75C5.6837 18.5 5.62011 18.4737 5.57322 18.4268C5.52634 18.3799 5.5 18.3163 5.5 18.25V16.56L10.524 11.537C10.6226 11.4384 10.6917 11.3144 10.7237 11.1787C10.7556 11.0431 10.7492 10.9012 10.705 10.769C10.5686 10.3598 10.4994 9.93129 10.5 9.5ZM14.5 4C13.6681 3.99986 12.847 4.18843 12.0985 4.55153C11.35 4.91463 10.6937 5.44279 10.1788 6.09625C9.66398 6.74971 9.30409 7.51145 9.12623 8.32412C8.94837 9.13679 8.95718 9.97923 9.152 10.788L4.22 15.72C4.07931 15.8605 4.00018 16.0512 4 16.25V18.25C4 19.216 4.784 20 5.75 20H7.75C7.94885 19.9998 8.13948 19.9207 8.28 19.78L8.78 19.28C8.92069 19.1395 8.99983 18.9488 9 18.75V18H9.75C9.94885 17.9998 10.1395 17.9207 10.28 17.78L10.78 17.28C10.9207 17.1395 10.9998 16.9488 11 16.75V16H11.75C11.9488 15.9998 12.1395 15.9207 12.28 15.78L13.212 14.848C13.9672 15.0293 14.7523 15.0487 15.5155 14.9047C16.2787 14.7608 17.0028 14.4568 17.64 14.0128C18.2773 13.5689 18.8133 12.995 19.2128 12.3289C19.6123 11.6628 19.8662 10.9197 19.9577 10.1485C20.0493 9.37721 19.9765 8.59531 19.7441 7.85422C19.5117 7.11314 19.125 6.42968 18.6094 5.84883C18.0938 5.26798 17.461 4.80292 16.7527 4.48426C16.0444 4.16559 15.2767 4.00055 14.5 4ZM15 10C15.2652 10 15.5196 9.89464 15.7071 9.70711C15.8946 9.51957 16 9.26522 16 9C16 8.73478 15.8946 8.48043 15.7071 8.29289C15.5196 8.10536 15.2652 8 15 8C14.7348 8 14.4804 8.10536 14.2929 8.29289C14.1054 8.48043 14 8.73478 14 9C14 9.26522 14.1054 9.51957 14.2929 9.70711C14.4804 9.89464 14.7348 10 15 10Z" fill="currentColor"/>
</svg>
