<svg width="28" height="55" viewBox="0 0 28 55" fill="none" xmlns="http://www.w3.org/2000/svg">
<g fill="currentColor"><path d="m27.25 30.5-15.9 23.2a.84.84 0 1 1-1.38-.96l15.9-23.19a.84.84 0 1 1 1.38.96zm-2.09-4.13L9.63 49.08a.84.84 0 0 1-1.39-.95l15.54-22.71a.84.84 0 0 1 1.38.95zm-4.72-24.8L2.43 27.9h16.9l-1.14 1.68H.36a.84.84 0 0 1-.22-1.15L19 .62A.84.84 0 0 1 20.16.4c.4.26.52.78.28 1.19z"/><path d="M22.12 6.62 10.24 23.99H22l-1.15 1.68H7.05l1.14-1.68 12.53-18.3a.84.84 0 0 1 1.39.93z"/></g>
</svg>
