<svg width="24" height="24" viewBox="0 0 24 24" fill="none" xmlns="http://www.w3.org/2000/svg">
<path fill-rule="evenodd" clip-rule="evenodd" d="M8.13333 8.26667V10.4H7.86667C7.3716 10.4 6.8968 10.5967 6.54673 10.9467C6.19667 11.2968 6 11.7716 6 12.2667V18.1333C6 19.1637 6.83627 20 7.86667 20H16.9333C17.4284 20 17.9032 19.8033 18.2533 19.4533C18.6033 19.1032 18.8 18.6284 18.8 18.1333V12.2667C18.8 11.7716 18.6033 11.2968 18.2533 10.9467C17.9032 10.5967 17.4284 10.4 16.9333 10.4H16.6667V8.26667C16.6667 7.13508 16.2171 6.04983 15.417 5.24968C14.6168 4.44952 13.5316 4 12.4 4C11.2684 4 10.1832 4.44952 9.38301 5.24968C8.58286 6.04983 8.13333 7.13508 8.13333 8.26667ZM15.0667 10.4V8.26667C15.0667 7.55942 14.7857 6.88115 14.2856 6.38105C13.7855 5.88095 13.1072 5.6 12.4 5.6C11.6928 5.6 11.0145 5.88095 10.5144 6.38105C10.0143 6.88115 9.73333 7.55942 9.73333 8.26667V10.4H15.0667ZM16.6667 12H16.9333C17.0041 12 17.0719 12.0281 17.1219 12.0781C17.1719 12.1281 17.2 12.1959 17.2 12.2667V18.1333C17.2 18.2041 17.1719 18.2719 17.1219 18.3219C17.0719 18.3719 17.0041 18.4 16.9333 18.4H7.86667C7.79594 18.4 7.72811 18.3719 7.6781 18.3219C7.6281 18.2719 7.6 18.2041 7.6 18.1333V12.2667C7.6 12.1959 7.6281 12.1281 7.6781 12.0781C7.72811 12.0281 7.79594 12 7.86667 12H16.6667Z" fill="currentColor"/>
</svg>
