<svg width="24" height="24" viewBox="0 0 24 24" fill="none" xmlns="http://www.w3.org/2000/svg">
<path d="M19.05 10.266v6.265a2.244 2.244 0 0 1-2.238 2.238H7.246a2.244 2.244 0 0 1-2.238-2.238v-6.265" stroke="currentColor" stroke-width="1.5" stroke-miterlimit="10"/><path d="M9.455 5.262v3.833c0 1.174-.951 2.153-2.126 2.153h-.42a2.613 2.613 0 0 1-2.405-3.664l.56-1.315A1.702 1.702 0 0 1 6.63 5.234l2.825.028ZM14.547 5.258V9.09c0 1.175.95 2.154 2.126 2.154h.42c1.901 0 3.16-1.93 2.405-3.665l-.56-1.314a1.721 1.721 0 0 0-1.566-1.007h-2.825ZM12.002 11.499A2.525 2.525 0 0 1 9.484 8.98V5.29h5.063v3.692c0 1.399-1.147 2.518-2.545 2.518Z" stroke="currentColor" stroke-width="1.5" stroke-miterlimit="10"/>
</svg>
