<svg width="24" height="24" viewBox="0 0 24 24" fill="none" xmlns="http://www.w3.org/2000/svg">
<path fill-rule="evenodd" clip-rule="evenodd" d="M4 11.1111H11.1111V4H4V11.1111ZM5.77778 5.77778H9.33333V9.33333H5.77778V5.77778ZM4 20H11.1111V12.8889H4V20ZM5.77778 14.6667H9.33333V18.2223H5.77778V14.6667ZM12.8887 11.1111V4H19.9998V11.1111H12.8887ZM14.6664 9.33333H18.222V5.77778H14.6664V9.33333ZM19.9999 18.2222L18.2224 18.2222V16.4445L19.9999 16.4445V14.6667L18.2224 14.6667V12.8889H16.4446V14.6667L14.667 14.6667V16.4445L16.4446 16.4445V18.2222L14.667 18.2222V20H16.4448V18.2222H18.2222V20H19.9999V18.2222ZM18.2222 14.6667H16.4448V16.4445H18.2222V14.6667ZM12.8887 12.8889H14.6665V14.6667H12.8887V12.8889ZM12.8887 16.4445H14.6665V18.2222H12.8887V16.4445Z" fill="currentColor"/>
</svg>
