<svg width="32" height="32" viewBox="0 0 32 32" fill="none" xmlns="http://www.w3.org/2000/svg">
<path transform="scale(.7) translate(5, 5)" d="m20.45 31.97 9.62-2.08-3.5-23.64c-.03-.16-.15-.26-.28-.26l-2.57-.18s-1.7-1.7-1.92-1.88a.41.41 0 0 0-.16-.1l-1.22 28.14zm-4.83-16.9s-1.09-.56-2.37-.56c-1.93 0-2 1.2-2 1.52 0 1.64 4.31 2.29 4.31 6.17 0 3.06-1.92 5.01-4.54 5.01-3.14 0-4.72-1.95-4.72-1.95l.86-2.78s1.66 1.42 3.04 1.42c.9 0 1.3-.72 1.3-1.24 0-2.16-3.54-2.26-3.54-5.81-.04-2.98 2.1-5.9 6.44-5.9 1.68 0 2.5.49 2.5.49l-1.26 3.62zM14.9 1.1c.17 0 .36.06.53.19-1.31.62-2.75 2.18-3.34 5.32-.88.28-1.73.54-2.52.77.69-2.38 2.36-6.26 5.33-6.26zm1.64 3.94v.18l-3.2.98c.63-2.37 1.79-3.53 2.79-3.96.26.67.41 1.57.41 2.8zm.72-2.98c.92.1 1.52 1.15 1.9 2.34-.46.15-.98.3-1.54.49v-.34c0-1-.13-1.82-.36-2.5zm3.99 1.72-.1.03c-.03 0-.39.1-.96.28-.56-1.65-1.56-3.16-3.34-3.16h-.16C16.2.28 15.56 0 15.02 0 10.88 0 8.9 5.17 8.28 7.8c-1.6.48-2.75.84-2.88.9-.9.28-.93.3-1.03 1.15-.1.62-2.44 18.75-2.44 18.75L20.01 32z" fill="currentColor"/>
</svg>
