<svg width="24" height="24" viewBox="0 0 24 24" fill="none" xmlns="http://www.w3.org/2000/svg">
<path fill-rule="evenodd" clip-rule="evenodd" d="m16.05 12.26 1.08-1.08a3.05 3.05 0 0 0-4.31-4.32l-2.7 2.7a2.28 2.28 0 0 0 0 3.23l.54.54 1.08-1.07a1.52 1.52 0 0 1 0-2.15l2.15-2.16a1.52 1.52 0 0 1 2.6 1.08 1.52 1.52 0 0 1-.44 1.07l-1.08 1.08 1.08 1.08Z" fill="currentColor"/><path fill-rule="evenodd" clip-rule="evenodd" d="M7.97 11.72 6.89 12.8a3.05 3.05 0 0 0 4.3 4.31l2.7-2.7a2.28 2.28 0 0 0 0-3.23l-.54-.54-1.07 1.08a1.52 1.52 0 0 1 0 2.15l-2.16 2.16a1.52 1.52 0 0 1-2.6-1.08 1.52 1.52 0 0 1 .45-1.08l1.08-1.08-1.08-1.07Z" fill="currentColor"/>
</svg>
