<svg width="24" height="24" viewBox="0 0 24 24" fill="none" xmlns="http://www.w3.org/2000/svg">
<path d="M12.337 3.101a.383.383 0 00-.674 0l-9.32 17.434a.383.383 0 00.338.564h18.638a.384.384 0 00.337-.564L12.337 3.101zM9.636 2.018c1.01-1.89 3.719-1.89 4.728 0l9.32 17.434a2.681 2.681 0 01-2.365 3.945H2.681a2.68 2.68 0 01-2.364-3.945L9.636 2.018zm3.896 15.25a1.532 1.532 0 11-3.064 0 1.532 1.532 0 013.064 0zm-.383-8.044a1.15 1.15 0 00-2.298 0v3.83a1.15 1.15 0 002.298 0v-3.83z" fill="currentColor"/>
</svg>
