<svg width="24" height="24" viewBox="0 0 24 24" fill="none" xmlns="http://www.w3.org/2000/svg">
<path fill-rule="evenodd" clip-rule="evenodd" d="M12.2528 5.32603C12.2282 5.28043 12.1917 5.24233 12.1472 5.21577C12.1027 5.18922 12.0518 5.1752 12 5.1752C11.9482 5.1752 11.8973 5.18922 11.8528 5.21577C11.8083 5.24233 11.7718 5.28043 11.7472 5.32603L4.75786 18.4014C4.73445 18.4451 4.72276 18.4942 4.72393 18.5438C4.7251 18.5934 4.7391 18.6419 4.76455 18.6844C4.79001 18.727 4.82606 18.7623 4.86919 18.7868C4.91233 18.8113 4.96107 18.8242 5.01068 18.8243H18.9893C19.0389 18.8242 19.0877 18.8113 19.1308 18.7868C19.1739 18.7623 19.21 18.727 19.2354 18.6844C19.2609 18.6419 19.2749 18.5934 19.2761 18.5438C19.2772 18.4942 19.2656 18.4451 19.2421 18.4014L12.2528 5.32603ZM10.2268 4.51356C10.9841 3.09547 13.0159 3.09547 13.7732 4.51356L20.7625 17.5889C20.9263 17.8953 21.0079 18.2389 20.9994 18.5862C20.9909 18.9335 20.8926 19.2727 20.714 19.5707C20.5354 19.8687 20.2827 20.1154 19.9804 20.2867C19.6782 20.458 19.3367 20.548 18.9893 20.5481H5.01068C4.66327 20.548 4.3218 20.458 4.01955 20.2867C3.7173 20.1154 3.46457 19.8687 3.286 19.5707C3.10743 19.2727 3.0091 18.9335 3.0006 18.5862C2.9921 18.2389 3.07372 17.8953 3.2375 17.5889L10.2268 4.51356ZM13.1492 15.9514C13.1492 16.2561 13.0281 16.5484 12.8126 16.764C12.5971 16.9795 12.3048 17.1005 12 17.1005C11.6952 17.1005 11.4029 16.9795 11.1874 16.764C10.9719 16.5484 10.8508 16.2561 10.8508 15.9514C10.8508 15.6466 10.9719 15.3543 11.1874 15.1388C11.4029 14.9233 11.6952 14.8022 12 14.8022C12.3048 14.8022 12.5971 14.9233 12.8126 15.1388C13.0281 15.3543 13.1492 15.6466 13.1492 15.9514ZM12.8619 9.91816C12.8619 9.68957 12.7711 9.47035 12.6094 9.30871C12.4478 9.14708 12.2286 9.05627 12 9.05627C11.7714 9.05627 11.5522 9.14708 11.3906 9.30871C11.2289 9.47035 11.1381 9.68957 11.1381 9.91816V12.7911C11.1381 13.0197 11.2289 13.2389 11.3906 13.4006C11.5522 13.5622 11.7714 13.653 12 13.653C12.2286 13.653 12.4478 13.5622 12.6094 13.4006C12.7711 13.2389 12.8619 13.0197 12.8619 12.7911V9.91816Z" fill="currentColor"/>
</svg>
