<svg width="32" height="32" viewBox="0 0 32 32" fill="none" xmlns="http://www.w3.org/2000/svg">
<path d="M21.3911 14.0298C20.4238 14.0396 19.4831 13.713 18.73 13.1059C17.9769 12.4988 17.4581 11.649 17.2622 10.7017C17.0664 9.75436 17.2057 8.76844 17.6564 7.91249C18.1071 7.05655 18.8412 6.38377 19.733 6.00919C20.6249 5.6346 21.6192 5.58148 22.5459 5.85891C23.4726 6.13634 24.2742 6.72709 24.8134 7.53015C25.3528 8.33319 25.5964 9.29866 25.5026 10.2614C25.4088 11.2242 24.9834 12.1246 24.2992 12.8084C23.5288 13.5829 22.4836 14.022 21.3911 14.0298ZM21.3911 7.5228C20.9277 7.52249 20.4746 7.65927 20.0888 7.91592C19.703 8.17258 19.4017 8.53764 19.223 8.96514C19.0442 9.39264 18.9959 9.86347 19.0842 10.3184C19.1724 10.7733 19.3933 11.1919 19.7189 11.5215C20.1653 11.9482 20.759 12.1863 21.3765 12.1863C21.9941 12.1863 22.5878 11.9482 23.0342 11.5215C23.359 11.1928 23.5796 10.7755 23.6683 10.3219C23.7571 9.86838 23.71 9.39874 23.5329 8.97182C23.356 8.54491 23.057 8.1797 22.6734 7.92194C22.2898 7.66419 21.8387 7.52534 21.3765 7.5228H21.3911Z" fill="currentColor"/><path d="M11.3293 29.9927C10.6744 29.9903 10.0472 29.7289 9.58436 29.2657L7.81038 27.4844L7.71586 27.608C7.18174 28.1431 6.45693 28.444 5.70089 28.4448C4.94485 28.4454 4.2195 28.1458 3.68441 27.6117C3.14933 27.0776 2.84834 26.3527 2.84766 25.5967C2.84698 24.8406 3.14666 24.1153 3.68078 23.5802L14.172 13.0672C13.4303 11.3826 13.301 9.49181 13.8065 7.722C14.312 5.9522 15.4204 4.41487 16.9399 3.37617C18.4594 2.33747 20.2942 1.8628 22.1268 2.03435C23.9594 2.20589 25.6743 3.01285 26.9746 4.31551C28.2749 5.61816 29.0787 7.3345 29.2469 9.16737C29.4152 11.0002 28.9372 12.8343 27.8957 14.3519C26.8543 15.8695 25.315 16.9751 23.5443 17.4774C21.7736 17.9797 19.883 17.847 18.1998 17.1023L15.0954 20.2067L16.3241 21.4354C16.5544 21.6639 16.7373 21.9357 16.8621 22.2352C16.9868 22.5346 17.0511 22.8559 17.0511 23.1803C17.0511 23.5048 16.9868 23.826 16.8621 24.1255C16.7373 24.425 16.5544 24.6968 16.3241 24.9252C15.8548 25.3728 15.2312 25.6225 14.5828 25.6225C13.9343 25.6225 13.3107 25.3728 12.8415 24.9252L11.6128 23.6893L11.2929 24.0092L13.0742 25.7904C13.4162 26.1364 13.6484 26.5757 13.742 27.0532C13.8354 27.5307 13.7859 28.0252 13.5996 28.4746C13.4132 28.9241 13.0984 29.3086 12.6946 29.5799C12.2908 29.8512 11.8158 29.9974 11.3293 30V29.9927ZM7.81038 25.296C7.92899 25.2954 8.04656 25.3182 8.15636 25.3631C8.26615 25.408 8.36599 25.4742 8.45017 25.5578L10.8712 27.9861C10.9961 28.1011 11.1596 28.1649 11.3293 28.1649C11.4989 28.1649 11.6624 28.1011 11.7873 27.9861C11.8474 27.9259 11.8949 27.8545 11.9274 27.7759C11.9598 27.6973 11.9764 27.613 11.9763 27.5281C11.9769 27.443 11.9604 27.3587 11.928 27.28C11.8955 27.2013 11.8477 27.1299 11.7873 27.07L9.36624 24.649C9.27688 24.5611 9.2068 24.4557 9.16049 24.3393C9.11417 24.2228 9.09263 24.098 9.09724 23.9728C9.09677 23.8536 9.12035 23.7354 9.16656 23.6255C9.21278 23.5156 9.2807 23.4161 9.36624 23.333L10.9948 21.7917C11.0792 21.707 11.1795 21.6399 11.2899 21.594C11.4003 21.5482 11.5187 21.5247 11.6383 21.5247C11.7578 21.5247 11.8762 21.5482 11.9865 21.594C12.0969 21.6399 12.1973 21.707 12.2817 21.7917L14.1575 23.6675C14.2802 23.7835 14.4428 23.8481 14.6119 23.8481C14.7808 23.8481 14.9434 23.7835 15.0663 23.6675C15.1276 23.6078 15.1766 23.5367 15.2102 23.4581C15.2439 23.3795 15.2618 23.2949 15.2626 23.2094C15.2605 23.0381 15.1929 22.8742 15.0735 22.7514L13.176 20.8465C13.0041 20.675 12.9073 20.4423 12.907 20.1995C12.9065 20.0802 12.93 19.9621 12.9763 19.8521C13.0225 19.7423 13.0904 19.6427 13.176 19.5597L17.3855 15.3501C17.5244 15.2094 17.7056 15.1183 17.9014 15.0906C18.0971 15.063 18.2965 15.1006 18.4688 15.1974C19.7515 15.9077 21.2475 16.131 22.6816 15.8261C24.1158 15.5214 25.3917 14.7091 26.2747 13.5387C27.1577 12.3681 27.5884 10.9182 27.4877 9.45553C27.3869 7.99281 26.7614 6.61566 25.7262 5.57732C24.691 4.539 23.3158 3.90933 21.8534 3.8041C20.391 3.69889 18.9398 4.1252 17.7666 5.00464C16.5935 5.88408 15.7773 7.15751 15.4681 8.59074C15.1591 10.024 15.3777 11.5206 16.0841 12.8055C16.1792 12.977 16.2157 13.1749 16.1881 13.369C16.1606 13.5632 16.0705 13.7432 15.9314 13.8815L4.96764 24.8307C4.8026 25.0286 4.71754 25.281 4.72917 25.5385C4.74081 25.796 4.84829 26.0397 5.0305 26.2219C5.21272 26.4041 5.4565 26.5117 5.71392 26.5233C5.97135 26.5349 6.22383 26.4499 6.42173 26.2848L7.14877 25.5578C7.32593 25.3863 7.56388 25.2922 7.81038 25.296Z" fill="currentColor"/>
</svg>
