<svg xmlns="http://www.w3.org/2000/svg" width="24" height="24" fill="none"><path stroke="currentColor" stroke-linecap="round" stroke-width="1.5" d="M4.615 7.385h14.77"/><path stroke="currentColor" stroke-width="1.5" d="M20 18.5V7.787a2 2 0 0 0-.448-1.261L17.95 4.554A1.5 1.5 0 0 0 16.786 4H7.214a1.5 1.5 0 0 0-1.164.554L4.448 6.526A2 2 0 0 0 4 7.787V18.5A1.5 1.5 0 0 0 5.5 20h13a1.5 1.5 0 0 0 1.5-1.5Z"/><path stroke="currentColor" stroke-linecap="round" stroke-width="1.5" d="M12 11v5m0 0-2.462-2.461M12 16l2.77-2.461"/></svg>