<svg xmlns="http://www.w3.org/2000/svg" width="24" height="24" fill="none"><path fill="currentColor" d="M11.862 6.002c-.005.002-.843.006-1.863.008-2.153.006-2.213.007-2.302.03a.9.9 0 0 0-.288.145 2.5 2.5 0 0 0-.278.289l-.044.05c-.01.01-.017.019-.015.019s-.01.014-.027.031a5 5 0 0 0-.194.235l-.045.053-.093.112c-.047.06-.106.132-.13.161a19 19 0 0 0-.35.43 1.3 1.3 0 0 0-.148.269c-.02.044-.072.188-.067.188q.003.002-.008.018c-.012.02-.014 8.748-.001 8.852.013.102.07.278.12.375.06.113.114.196.126.196q.006 0 .007.009c0 .02.118.15.18.2.024.019.056.045.07.058a.3.3 0 0 0 .049.035 1.7 1.7 0 0 0 .5.218c.064.017 9.169.024 9.662.008.254-.009.34-.029.543-.128a1 1 0 0 0 .199-.128 1.3 1.3 0 0 0 .51-.831c.007-.045.01-1.19.012-4.451l.002-4.391-.04-.108a1.6 1.6 0 0 0-.126-.277 5 5 0 0 0-.124-.187l-.073-.094a.5.5 0 0 0-.068-.078q-.007-.001-.011-.014a.2.2 0 0 0-.038-.05 2 2 0 0 1-.1-.116l-.042-.053-.052-.064-.045-.055-.032-.04-.032-.04a5 5 0 0 0-.146-.179l-.08-.096c-.328-.4-.564-.576-.793-.591a356 356 0 0 0-4.325-.018m3.917.689c.174.005.22.015.22.048 0 .004.014.02.03.035l.048.05c.01.013.069.078.131.144l.267.283.047.05.024.025H7.445l.021-.03.037-.046.048-.06.057-.07a.1.1 0 0 0 .02-.027c0-.002.014-.019.032-.039l.047-.058c.007-.012.016-.022.02-.022q.005 0 .006-.012 0-.01.006-.012a.4.4 0 0 0 .054-.06c.026-.034.058-.073.07-.087s.04-.047.06-.075l.038-.05 3.84.004c2.114.003 3.903.007 3.978.009m-2.458 4.656v.672h1.144c.63 0 1.146.001 1.148.003a1 1 0 0 1-.09.094l-.245.25a2 2 0 0 1-.164.166q0 .009-.016.019-.016.009-.013.014t-.006.006c-.006 0-.074.067-.151.148s-.144.147-.15.147a.02.02 0 0 0-.015.01q-.005.008.004.003c.015-.01.01 0-.008.016q-.016.012-.012.005.023-.036-.06.059a.4.4 0 0 1-.077.076q-.017.007-.014.015t-.008.008-.012.006a.6.6 0 0 1-.118.119c.008.007-.017.035-.03.035a.02.02 0 0 0-.017.01q-.005.008.005.002t.005.003a.02.02 0 0 1-.016.009c-.005 0-.02.013-.033.03-.033.041-.068.078-.068.07q0-.005-.012.004-.01.01-.007.017t-.012.012-.015.01a.7.7 0 0 1-.104.104q-.005.001-.006.01t-.012.008q-.01-.002-.006.003c.008.008-.01.029-.019.023q-.006-.003-.007.007c0 .018-.068.089-.079.082q-.008-.004-.008.001.005.03-.014.023-.012-.005-.008 0c.007.008-.018.036-.031.036a.02.02 0 0 0-.016.009q-.006.01.005.002.015-.009 0 .007-.01.013-.014.01a1 1 0 0 0-.093.09 1 1 0 0 1-.1.096c.003.01-.028.042-.047.05q-.016.008-.018.02-.001.01-.01.011c-.01 0-.054.04-.054.048 0 .01-.197.204-.204.202q-.007-.002-.002.003c.008.008-.018.036-.028.03q-.007-.005-.004.003c.007.01-.037.052-.046.044q-.005-.005-.002.003c.003.005-.002.016-.012.024q-.025.023-.006 0a1 1 0 0 0-.071.07 3 3 0 0 1-.137.137c.007-.004.002.005-.011.018-.013.014-.027.025-.032.024q-.007-.001-.009.01t-.01.01q-.01-.002-.007.004c.004.007-.04.054-.05.054-.012 0-.025.014-.02.022q.005.008-.004.003t-.014.007a.2.2 0 0 1-.042.047 1 1 0 0 0-.177.184q-.022.018-.02.02.005.002-.008.017c-.008.009-.02.016-.025.016q-.01 0-.008.006c.002.003-.005.013-.017.021q-.017.013-.014.005.007-.01-.002-.005-.009.006-.01.019 0 .011-.005.007a1.6 1.6 0 0 0-.21.207c0 .014-.053.06-.06.054q-.006-.005-.002.003t-.007.019q-.01.008-.011.004t-.012.005q-.01.01-.007.017.003.005-.004.006a2 2 0 0 0-.162.15c-.135.131-.156.15-.165.138q-.009-.011-.01-.005c0 .004-.009-.002-.019-.013a.3.3 0 0 0-.04-.034c-.02-.014-.03-.035-.011-.024q.009.005.003-.001-.006-.007-.01-.008a2 2 0 0 1-.104-.1 2 2 0 0 0-.099-.097q0 .003-.012-.006-.01-.01-.008-.017.004-.006-.006-.003c-.012.005-.057-.041-.05-.052q.003-.006-.01-.018-.019-.016-.002.005a2 2 0 0 1-.108-.106 3 3 0 0 1-.123-.13q-.002-.006-.014-.007a.6.6 0 0 1-.129-.127 4 4 0 0 0-.223-.222q-.009-.009-.004-.015t-.004 0c-.014.007-.126-.104-.118-.117q.006-.008-.002-.004-.01.002-.023-.012-.013-.016-.005-.011a1 1 0 0 0-.067-.07 1 1 0 0 0-.088-.08q-.011-.007-.007-.014.004-.008-.006-.006-.01 0-.008-.008.001-.01-.007-.005c-.012.007-.09-.074-.083-.086q.006-.008-.002-.004c-.006.004-.044-.03-.041-.037l-.134-.133c-.165-.16-.154-.15-.135-.136q.021.015.005-.002-.01-.013-.02-.014c-.012 0-.057-.047-.064-.068q-.005-.013-.01-.01a1.3 1.3 0 0 1-.144-.144q-.014-.016-.025-.018-.009 0-.01-.012a.02.02 0 0 0-.01-.017q-.008-.006-.002.005.004.009-.02-.015c-.015-.014-.028-.03-.028-.036q0-.009-.008-.01c-.013 0-.052-.037-.047-.045q.003-.005-.002-.005a5 5 0 0 1-.306-.307q-.001-.005-.013-.006-.01-.001-.008-.008.004-.007-.006-.008a.4.4 0 0 1-.076-.071.5.5 0 0 0-.086-.083q-.023-.024 0-.006.022.017.006-.002c-.006-.008-.016-.014-.021-.014-.01 0-.046-.034-.042-.04a.3.3 0 0 0-.045-.05c-.026-.027-.044-.043-.04-.037.01.017-.044-.024-.057-.043-.006-.009-.01-.02-.007-.024q.004-.008-.004-.002-.009.003-.013-.005c-.003-.006-.183-.19-.4-.41s-.395-.4-.393-.401c.001-.002.518-.003 1.147-.003h1.145v-1.343h2.654z"/></svg>