<svg xmlns="http://www.w3.org/2000/svg" width="24" height="24" fill="none"><path fill="currentColor" d="M8.708 18.998a1.05 1.05 0 0 1-1.547 0L4.276 15.85a1.048 1.048 0 1 1 1.548-1.416l1.061 1.157V5.7a1.048 1.048 0 1 1 2.099 0v9.892l1.062-1.16a1.05 1.05 0 0 1 1.482-.066 1.05 1.05 0 0 1 .066 1.482l-2.886 3.148zm4.473-4.905c0-.58.469-1.05 1.049-1.05h4.197a1.053 1.053 0 0 1 .744 1.794l-2.407 2.403h1.663a1.048 1.048 0 1 1 0 2.099H14.23a1.053 1.053 0 0 1-.744-1.794l2.406-2.403H14.23a1.05 1.05 0 0 1-1.05-1.05m3.147-9.443c.397 0 .761.223.938.58l2.098 4.197.525 1.05a1.048 1.048 0 1 1-1.875.937l-.236-.469h-2.899l-.236.47a1.048 1.048 0 1 1-1.875-.939l.524-1.049 2.099-4.197c.177-.357.54-.58.937-.58m-.662 4.721h1.325l-.663-1.324z"/></svg>