<svg xmlns="http://www.w3.org/2000/svg" width="24" height="24" fill="none"><path fill="currentColor" d="M4.143 6.31a.75.75 0 0 1 1.047-.167l14.5 10.5a.749.749 0 0 1-.316 1.362.75.75 0 0 1-.564-.148l-2.248-1.628C15.346 17.19 13.792 18 12 18c-1.981 0-3.67-.992-4.933-2.078-1.27-1.09-2.187-2.345-2.637-3.022a1.62 1.62 0 0 1 0-1.797c.353-.533.995-1.42 1.868-2.305L4.31 7.357a.75.75 0 0 1-.167-1.047m1.536 5.622a.12.12 0 0 0-.022.068q-.001.033.022.068c.412.621 1.242 1.75 2.366 2.717 1.13.973 2.482 1.715 3.955 1.715 1.195 0 2.31-.488 3.29-1.191l-2.227-1.614a2 2 0 0 1-3.005-2.175l-2.53-1.832a14.2 14.2 0 0 0-1.85 2.244m6.32-4.432c-.515 0-1.016.09-1.498.251a.75.75 0 1 1-.473-1.423A6.2 6.2 0 0 1 12 6c1.98 0 3.67.992 4.933 2.078 1.27 1.091 2.187 2.345 2.637 3.023a1.62 1.62 0 0 1 0 1.798c-.11.166-.248.365-.41.587a.752.752 0 0 1-1.247-.054.75.75 0 0 1 .037-.833c.148-.201.272-.382.37-.53a.12.12 0 0 0 0-.137c-.411-.621-1.241-1.75-2.365-2.717C14.825 8.242 13.473 7.5 12 7.5"/></svg>