<svg xmlns="http://www.w3.org/2000/svg" width="24" height="24" fill="none"><path fill="currentColor" d="M8.708 5.341A1.05 1.05 0 0 0 7.935 5c-.295 0-.574.125-.774.341L4.276 8.489a1.048 1.048 0 1 0 1.548 1.416l1.061-1.157v9.892a1.048 1.048 0 1 0 2.099 0V8.748l1.062 1.16a1.05 1.05 0 0 0 1.482.066 1.05 1.05 0 0 0 .066-1.482L8.708 5.344zm4.473 9.102c0 .58.469 1.049 1.049 1.049h1.662l-2.406 2.407a1.05 1.05 0 0 0 .744 1.793h4.197a1.048 1.048 0 1 0 0-2.098h-1.663l2.407-2.407c.302-.301.39-.75.226-1.144a1.05 1.05 0 0 0-.97-.65H14.23c-.58 0-1.05.47-1.05 1.05M16.328 5c-.396 0-.76.223-.937.58l-2.099 4.197-.524 1.05a1.048 1.048 0 1 0 1.875.937l.236-.469h2.899l.236.47a1.048 1.048 0 1 0 1.875-.939l-.525-1.049-2.098-4.197a1.05 1.05 0 0 0-.938-.58m-.662 4.721.662-1.324.663 1.324z"/></svg>