<svg xmlns="http://www.w3.org/2000/svg" width="24" height="24" fill="none"><path fill="currentColor" d="M12 9.5A2.32 2.32 0 0 0 9.5 12a2.32 2.32 0 0 0 2.5 2.5 2.32 2.32 0 0 0 2.5-2.5A2.32 2.32 0 0 0 12 9.5"/><path fill="currentColor" d="M20.177 11.678C20.067 11.446 17.412 6 12 6s-8.066 5.446-8.177 5.678L3.67 12l.154.322C3.933 12.555 6.589 18 12 18c5.412 0 8.067-5.446 8.177-5.677l.154-.323zM12 16.5c-3.77 0-6.03-3.42-6.65-4.5.62-1.081 2.879-4.5 6.65-4.5s6.029 3.419 6.65 4.5c-.621 1.082-2.88 4.5-6.65 4.5"/></svg>