<svg xmlns="http://www.w3.org/2000/svg" width="16" height="16" fill="none"><path fill="currentColor" fill-rule="evenodd" d="M8 16A8 8 0 1 0 7.998-.002 8 8 0 0 0 8 16m-.336-8.032.773-.616c.258-.203.437-.414.546-.624a1.43 1.43 0 0 0 .172-.71c0-.32-.094-.578-.297-.758q-.301-.272-.85-.273c-.549-.001-.664.094-.882.289-.203.195-.312.46-.312.804 0 .255-.194.489-.449.47l-.728-.053a.46.46 0 0 1-.435-.4 3 3 0 0 1-.012-.244c0-.655.258-1.178.765-1.568.523-.383 1.21-.578 2.076-.578.913 0 1.616.187 2.115.57q.74.561.742 1.592-.002 1.146-1.093 2.068l-.679.57a1.4 1.4 0 0 0-.28.312.74.74 0 0 0-.071.351.36.36 0 0 1-.36.36h-.78a.5.5 0 0 1-.5-.5v-.023c0-.235.048-.43.133-.586a1.8 1.8 0 0 1 .406-.453m-.406 4.036a.97.97 0 0 0 .726.288c.305 0 .547-.093.734-.288a1 1 0 0 0 .289-.734c0-.304-.094-.546-.289-.742-.187-.195-.43-.288-.734-.288a.97.97 0 0 0-.726.288 1.02 1.02 0 0 0-.28.742q0 .443.28.734" clip-rule="evenodd"/></svg>