<svg xmlns="http://www.w3.org/2000/svg" width="24" height="24" fill="none"><path fill="currentColor" fill-rule="evenodd" d="M12 21a9.001 9.001 0 0 0 0-18 9.001 9.001 0 0 0 0 18m-.378-9.035.87-.694c.29-.228.491-.466.614-.703.132-.237.193-.5.193-.799 0-.36-.105-.65-.333-.851-.228-.202-.545-.308-.957-.308-.413 0-.747.106-.992.325-.229.22-.352.518-.352.905 0 .287-.217.55-.504.529l-.866-.063a.46.46 0 0 1-.437-.4 3 3 0 0 1-.019-.321c0-.738.29-1.326.86-1.765.589-.43 1.361-.65 2.336-.65q1.539-.002 2.38.641c.553.422.834 1.019.834 1.792 0 .86-.413 1.633-1.23 2.326l-.764.641a1.6 1.6 0 0 0-.316.352.8.8 0 0 0-.079.395c0 .223-.18.404-.403.404h-.94a.5.5 0 0 1-.5-.5v-.089q.002-.395.149-.658a2 2 0 0 1 .456-.51m-.456 4.54c.21.219.492.324.816.324.343 0 .615-.105.826-.325.22-.22.325-.492.325-.825 0-.343-.106-.615-.325-.834-.211-.22-.483-.325-.826-.325-.324 0-.605.105-.816.325s-.316.491-.316.834q0 .498.316.825" clip-rule="evenodd"/></svg>