<svg xmlns="http://www.w3.org/2000/svg" width="24" height="24" fill="none"><rect width="22" height="22" x="1" y="1" stroke="currentColor" stroke-width="2" rx="3"/><path fill="currentColor" d="M15.568 17H8.315v-1.777l2.44-2.468a40 40 0 0 0 1.177-1.272q.423-.479.594-.813.171-.335.171-.697 0-.444-.287-.643a1.16 1.16 0 0 0-.677-.198 1.94 1.94 0 0 0-.957.273 7 7 0 0 0-1.087.793L8.206 8.462q.45-.403.957-.766a4.4 4.4 0 0 1 1.196-.601q.69-.233 1.682-.233 1.02 0 1.764.356.751.356 1.162.977.41.616.41 1.402 0 .869-.321 1.551-.315.678-.95 1.36-.636.678-1.586 1.539l-.732.656v.069h3.78z"/></svg>