<svg xmlns="http://www.w3.org/2000/svg" width="24" height="24" fill="none"><path fill="currentColor" fill-rule="evenodd" d="M10.5 9.5a4 4 0 1 1 2.731 3.795.75.75 0 0 0-.768.18L11.44 14.5h-1.19a.75.75 0 0 0-.75.75v1.19l-.06.06H8.25a.75.75 0 0 0-.75.75v1.19l-.06.06H5.75a.25.25 0 0 1-.25-.25v-1.69l5.024-5.023a.75.75 0 0 0 .181-.768A4 4 0 0 1 10.5 9.5m4-5.5a5.5 5.5 0 0 0-5.348 6.788L4.22 15.72a.75.75 0 0 0-.22.53v2c0 .966.784 1.75 1.75 1.75h2a.75.75 0 0 0 .53-.22l.5-.5a.75.75 0 0 0 .22-.53V18h.75a.75.75 0 0 0 .53-.22l.5-.5a.75.75 0 0 0 .22-.53V16h.75a.75.75 0 0 0 .53-.22l.932-.932A5.5 5.5 0 1 0 14.5 4m.5 6a1 1 0 1 0 0-2 1 1 0 0 0 0 2" clip-rule="evenodd"/></svg>