<svg xmlns="http://www.w3.org/2000/svg" width="24" height="24" fill="none"><path fill="currentColor" stroke="currentColor" stroke-width=".75" d="m16.686 5.55-4.74 4.792-4.743-4.848-.001-.002a1.185 1.185 0 0 0-1.715 0 1.206 1.206 0 0 0 0 1.722l4.747 4.8-4.747 4.8a1.206 1.206 0 0 0 0 1.722c.263.267.601.339.885.339s.622-.072.886-.339L12 13.742l4.742 4.794c.264.267.602.339.886.339s.622-.072.885-.339a1.206 1.206 0 0 0 0-1.722l-.004-.005-4.852-4.742 4.744-4.796a1.206 1.206 0 0 0 0-1.722 1.185 1.185 0 0 0-1.715 0Z"/></svg>