<svg xmlns="http://www.w3.org/2000/svg" width="24" height="24" fill="none"><path fill="currentColor" fill-rule="evenodd" d="M8.133 8.267V10.4h-.266A1.867 1.867 0 0 0 6 12.267v5.866C6 19.163 6.836 20 7.867 20h9.066a1.867 1.867 0 0 0 1.867-1.867v-5.866a1.867 1.867 0 0 0-1.867-1.867h-.266V8.267a4.267 4.267 0 0 0-8.534 0m6.934 2.133V8.267a2.667 2.667 0 0 0-5.334 0V10.4zm1.6 1.6h.266a.267.267 0 0 1 .267.267v5.866a.267.267 0 0 1-.267.267H7.867a.267.267 0 0 1-.267-.267v-5.866A.267.267 0 0 1 7.867 12z" clip-rule="evenodd"/></svg>