<svg xmlns="http://www.w3.org/2000/svg" width="24" height="24"><g fill="currentColor"><path d="M7.023 23.262a1.32 1.32 0 0 1-1.32-1.32V2.077a1.32 1.32 0 1 1 2.64 0v19.865a1.32 1.32 0 0 1-1.32 1.32"/><path d="M7.024 23.262a1.32 1.32 0 0 1-.566-2.513l7.96-3.777-8.178-6.024a1.32 1.32 0 0 1 1.566-2.126l9.954 7.333a1.32 1.32 0 0 1-.217 2.256l-9.954 4.724a1.3 1.3 0 0 1-.565.127"/><path d="M7.025 15.454a1.32 1.32 0 0 1-.784-2.383l8.176-6.024-7.96-3.778A1.32 1.32 0 0 1 7.59.884l9.954 4.724a1.32 1.32 0 0 1 .217 2.255l-9.954 7.333a1.3 1.3 0 0 1-.781.258"/><path d="M8.343 9.218V14.8l3.787-2.79Zm0-7.141a1.32 1.32 0 0 0-1.32-1.32 1.32 1.32 0 0 0-1.32 1.32v16.612h2.64z"/></g></svg>