<svg xmlns="http://www.w3.org/2000/svg" width="32" height="32" fill="none"><path fill="currentColor" d="m17.815 25.879 6.734-1.456-2.45-16.548c-.021-.112-.105-.182-.196-.182l-1.799-.126s-1.19-1.19-1.344-1.316a.3.3 0 0 0-.112-.07l-.854 19.698zm-3.381-11.83s-.763-.392-1.659-.392c-1.351 0-1.4.84-1.4 1.064 0 1.148 3.017 1.603 3.017 4.319 0 2.142-1.344 3.507-3.178 3.507-2.198 0-3.304-1.365-3.304-1.365l.602-1.946s1.162.994 2.128.994c.63 0 .91-.504.91-.868 0-1.512-2.478-1.582-2.478-4.067-.028-2.086 1.47-4.13 4.508-4.13 1.176 0 1.75.343 1.75.343l-.882 2.534zM13.93 4.27c.119 0 .252.042.371.133-.917.434-1.925 1.526-2.338 3.724-.616.196-1.211.378-1.764.539.483-1.666 1.652-4.382 3.731-4.382zm1.148 2.758v.126l-2.24.686c.441-1.659 1.253-2.471 1.953-2.772.182.469.287 1.099.287 1.96m.504-2.086c.644.07 1.064.805 1.33 1.638-.322.105-.686.21-1.078.343v-.238c0-.7-.091-1.274-.252-1.75zm2.793 1.204-.07.021c-.021 0-.273.07-.672.196-.392-1.155-1.092-2.212-2.338-2.212h-.112c-.343-.455-.791-.651-1.169-.651-2.898 0-4.284 3.619-4.718 5.46-1.12.336-1.925.588-2.016.63-.63.196-.651.21-.721.805-.07.434-1.708 13.125-1.708 13.125l12.656 2.38z"/></svg>