<svg xmlns="http://www.w3.org/2000/svg" width="610" height="524" fill="none"><path fill="currentColor" d="M418.62 107.6c1.95 4.6 2.73 8.24 2.63 10.24-7.56-4.56-18.93-8.43-25.14-9.54-4.03-.72 9.18-3.93 22.51-.7m10.99 169.33a476 476 0 0 1 14.43-2.8 447 447 0 0 0-5.98-3.71c-25.45-15.5-52.58-28.64-79.4-41.37-16.91-8.03-34.15-16.02-51.7-23.22 15.31-20.19 34.91-37.32 55.86-52 .02 0 .1-.07.23-.16 4.59 6.26 10.38 10.51 13.29 12.11 5.68 3.13 12.84 6.06 19.41 6.95a110.5 110.5 0 0 0 35.44-.55c1.06-.18 2.14-.3 3.2-.49a105 105 0 0 1 16.87-1.54c5.88-.1 8.79 1.14 9.48 1.32 2.1.54 3.89 1.44 4.88 2.64a40 40 0 0 0 3.7 4.13c3.96 3.93 7.89 6.11 13.58 6.74 7.34.8 12.53-2.07 16.2-6.83 1.74-2.25.9-5.78.71-6.47-.96-3.55-3.18-8.7-4.8-13.5a27.3 27.3 0 0 0-4.86-7.64l-2.42-2.56c-3.78-4-7.59-7.96-11.36-11.95-15.06-15.92-31.38-30.58-48.21-44.59l-5.24-4.36-3.82-3.16a1033 1033 0 0 0-6.06-4.96l-1.63-1.31c-.86-.7-2.81-2.34-4.46-3.66 5.46-5.44 9.86-8.83 17.68-13.95 1.12-.74 7.16-3.96 6.95-4.78-.13-.49-10.05-.38-21.4 1.09-4 .51-26.38 3.81-41.74 7.16-16.35 3.56-33.62 8.55-49.53 13.55-45.94 14.47-89.81 34.07-129.99 60.7-23.09 15.32-44.7 32.21-65.56 50.42a1067 1067 0 0 0-28.81 25.95 697 697 0 0 0-4.41 4.19c2 .37 4.01.76 6.02 1.18 16.6 3.4 33.04 7.97 49.02 12.53 19.53 5.59 39.3 11.6 58.41 19a583 583 0 0 0-31.63 32.21 766 766 0 0 0-53.37 66.63c-21.6 30.15-40.02 62.67-56.09 96.17a765 765 0 0 0-4.5 9.54q4.455-3.57 8.97-7.08c26.01-20.17 53.44-38.82 80.82-56.84 38.53-25.35 79.88-46.3 122.78-63.16 51.73-20.32 104.56-40.03 159.04-51.57"/></svg>