<svg xmlns="http://www.w3.org/2000/svg" width="24" height="24" fill="none"><path stroke="currentColor" stroke-linecap="round" stroke-linejoin="round" stroke-width="1.5" d="m9.817 6.154.529-1.366A1.23 1.23 0 0 1 11.49 4h1.01a1.23 1.23 0 0 1 1.144.788l.53 1.366 1.797 1.034 1.452-.222a1.23 1.23 0 0 1 1.23.603l.493.862a1.23 1.23 0 0 1-.099 1.39l-.898 1.145v2.068l.923 1.144a1.23 1.23 0 0 1 .099 1.391l-.493.862a1.23 1.23 0 0 1-1.23.603l-1.453-.222-1.797 1.034-.529 1.366a1.23 1.23 0 0 1-1.145.788h-1.033a1.23 1.23 0 0 1-1.145-.788l-.53-1.366-1.796-1.034-1.453.222a1.23 1.23 0 0 1-1.23-.603l-.493-.862a1.23 1.23 0 0 1 .099-1.39l.898-1.145v-2.068l-.923-1.144A1.23 1.23 0 0 1 4.82 8.43l.492-.862a1.23 1.23 0 0 1 1.23-.603l1.453.222zM9.534 12a2.462 2.462 0 1 0 4.923 0 2.462 2.462 0 0 0-4.923 0"/></svg>