<svg xmlns="http://www.w3.org/2000/svg" width="24" height="24" fill="none"><path fill="currentColor" fill-rule="evenodd" d="M12 22.39c5.739 0 10.39-4.651 10.39-10.39S17.74 1.61 12 1.61C6.261 1.61 1.61 6.26 1.61 12c0 5.739 4.651 10.39 10.39 10.39m0-2.597a7.793 7.793 0 1 0 0-15.586 7.793 7.793 0 0 0 0 15.586" clip-rule="evenodd"/><path fill="currentColor" d="M12 6.805a1.299 1.299 0 1 0 0 2.597 1.299 1.299 0 0 0 0-2.597M10.701 12s0-1.299 1.299-1.299S13.299 12 13.299 12v3.897s0 1.298-1.299 1.298-1.299-1.298-1.299-1.298z"/></svg>