<svg xmlns="http://www.w3.org/2000/svg" width="24" height="24" fill="none"><path stroke="currentColor" stroke-width="1.5" d="M12 19.729c-.644-1.245-2.43-2.71-4.954-3.025-.548-.068-.998-.509-.998-1.061V5.512c0-.629.583-1.203 1.21-1.162 1.055.07 2.649.4 4.742 2.054"/><path stroke="currentColor" stroke-width="1.5" d="M5.903 6.123H5a2 2 0 0 0-2 2v9.465a2 2 0 0 0 2 2h14a2 2 0 0 0 2-2V8.123a2 2 0 0 0-2-2h-7.435"/><path stroke="currentColor" stroke-linecap="round" stroke-width="1.5" d="M14.903 9.21h3.194m-3.194 3.786h3.194m-3.194 3.787h3.194"/><path stroke="currentColor" stroke-width="1.5" d="M12.169 6.404v13.184"/></svg>