<svg xmlns="http://www.w3.org/2000/svg" width="24" height="24" fill="none"><path stroke="currentColor" stroke-miterlimit="10" stroke-width="1.5" d="M12.126 4.661c3.305 0 4.694 2.91 5.024 4.033.397 1.389.067 1.984.397 3.901.198 1.256.86 2.314 1.389 2.91.198.197 0 .528-.265.528H5.382c-.265 0-.463-.33-.265-.529.463-.595 1.19-1.653 1.389-2.909.264-1.917 0-2.512.396-3.9.331-1.125 1.786-4.034 5.224-4.034Zm2.71 11.372c0 .132.066.33.066.463a2.82 2.82 0 0 1-2.843 2.843 2.82 2.82 0 0 1-2.843-2.843v-.397"/></svg>