<svg xmlns="http://www.w3.org/2000/svg" width="24" height="24" fill="none"><path stroke="currentColor" stroke-miterlimit="10" stroke-width="1.5" d="M19.049 10.264v6.265a2.244 2.244 0 0 1-2.238 2.238H7.245a2.244 2.244 0 0 1-2.238-2.238v-6.265"/><path stroke="currentColor" stroke-miterlimit="10" stroke-width="1.5" d="M9.455 5.256V9.09c0 1.175-.951 2.153-2.126 2.153h-.42a2.613 2.613 0 0 1-2.405-3.664l.559-1.315A1.7 1.7 0 0 1 6.629 5.23zm5.091.002V9.09c0 1.175.95 2.154 2.125 2.154h.42c1.902 0 3.16-1.93 2.406-3.665l-.56-1.314a1.72 1.72 0 0 0-1.566-1.007zM12 11.495a2.525 2.525 0 0 1-2.517-2.518V5.285h5.063v3.692c0 1.4-1.147 2.518-2.546 2.518Z"/></svg>