<svg xmlns="http://www.w3.org/2000/svg" width="24" height="24" fill="none"><path fill="currentColor" stroke="currentColor" stroke-width=".6" d="M12 20a8 8 0 1 1 0-16 8 8 0 0 1 0 16Zm0-15.19a7.2 7.2 0 0 0 0 14.38A7.2 7.2 0 0 0 12 4.8Z"/><path fill="currentColor" stroke="currentColor" stroke-width=".6" d="M9.48 14.85a.44.44 0 0 1-.3-.14c-.14-.16-.14-.43.05-.57l5.02-4.31c.16-.14.43-.14.57.05.14.17.14.44-.05.57l-5.05 4.29c-.05.08-.16.1-.24.1Z"/><path fill="currentColor" stroke="currentColor" stroke-width=".6" d="M14.39 14.28a.4.4 0 0 1-.41-.4l.1-3.42-3.08-.17a.4.4 0 0 1-.38-.43c0-.22.19-.4.43-.38l3.47.19c.22 0 .38.19.38.4l-.13 3.83c.02.19-.17.38-.38.38Z"/></svg>