<svg xmlns="http://www.w3.org/2000/svg" width="24" height="24" fill="none"><path stroke="currentColor" stroke-miterlimit="10" stroke-width="1.5" d="M12.193.992c4.959 0 7.042 4.364 7.538 6.05.595 2.082.099 2.975.595 5.851.297 1.884 1.289 3.471 2.082 4.364.298.297 0 .793-.396.793H2.078c-.397 0-.695-.496-.397-.793.694-.893 1.785-2.48 2.083-4.364.396-2.876 0-3.769.595-5.851.495-1.686 2.677-6.05 7.834-6.05Z"/><path stroke="currentColor" stroke-miterlimit="10" stroke-width="1.5" d="M16.26 18.049c0 .198.099.496.099.694a4.233 4.233 0 0 1-4.265 4.265 4.233 4.233 0 0 1-4.264-4.265v-.595"/></svg>