<svg xmlns="http://www.w3.org/2000/svg" width="24" height="24" fill="none"><g clip-path="url(#a)"><path fill="#E11900" fill-rule="evenodd" d="M3.515 20.486a12 12 0 1 1 16.97-16.97 12 12 0 0 1-16.97 16.97m5.53-13.03a1.125 1.125 0 0 0-1.59 1.59L10.41 12l-2.955 2.955a1.125 1.125 0 1 0 1.59 1.59L12 13.59l2.955 2.955a1.126 1.126 0 1 0 1.59-1.59L13.59 12l2.955-2.955a1.126 1.126 0 1 0-1.59-1.59L12 10.41z" clip-rule="evenodd"/></g><defs><clipPath id="a"><path fill="#fff" d="M0 0h24v24H0z"/></clipPath></defs></svg>