<svg xmlns="http://www.w3.org/2000/svg" width="24" height="24" fill="none"><g clip-path="url(#a)"><path fill="#1F6FEB" fill-rule="evenodd" d="M0 12C0 5.373 5.373 0 12 0s12 5.373 12 12-5.373 12-12 12S0 18.627 0 12m7.954 4.046a1.125 1.125 0 0 1 0-1.591l4.58-4.58h-2.349a1.125 1.125 0 1 1 0-2.25h5.065c.194 0 .376.05.535.136l.013.006a1.12 1.12 0 0 1 .47.503c.068.145.107.308.107.48v4.75a1.125 1.125 0 0 1-2.25 0v-2.034l-4.58 4.58a1.124 1.124 0 0 1-1.59 0" clip-rule="evenodd"/></g><defs><clipPath id="a"><path fill="#fff" d="M0 0h24v24H0z"/></clipPath></defs></svg>