<svg xmlns="http://www.w3.org/2000/svg" width="24" height="24" fill="none"><path stroke="currentColor" stroke-miterlimit="10" stroke-width="1.5" d="M19.05 10.266v6.265a2.244 2.244 0 0 1-2.238 2.238H7.246a2.244 2.244 0 0 1-2.238-2.238v-6.265"/><path stroke="currentColor" stroke-miterlimit="10" stroke-width="1.5" d="M9.455 5.262v3.833c0 1.174-.951 2.153-2.126 2.153h-.42a2.613 2.613 0 0 1-2.405-3.664l.56-1.315A1.7 1.7 0 0 1 6.63 5.234zm5.092-.004V9.09c0 1.175.95 2.154 2.126 2.154h.42c1.901 0 3.16-1.93 2.405-3.665l-.56-1.314a1.72 1.72 0 0 0-1.566-1.007zm-2.545 6.241A2.525 2.525 0 0 1 9.484 8.98V5.29h5.063v3.692c0 1.399-1.147 2.518-2.545 2.518Z"/></svg>