<svg xmlns="http://www.w3.org/2000/svg" width="24" height="24" fill="none"><path fill="currentColor" fill-rule="evenodd" d="M4 11.111h7.111V4H4zm1.778-5.333h3.555v3.555H5.778zM4 20h7.111v-7.111H4zm1.778-5.333h3.555v3.555H5.778zm7.11-3.556V4H20v7.111zm1.778-1.778h3.556V5.778h-3.556zM20 18.223h-1.778v-1.778H20v-1.778h-1.778v-1.778h-1.777v1.778h-1.778v1.778h1.778v1.777h-1.778V20h1.778v-1.778h1.777V20H20zm-1.778-3.556h-1.777v1.778h1.777zm-5.333-1.778h1.777v1.778H12.89zm0 3.556h1.777v1.777H12.89z" clip-rule="evenodd"/></svg>