<svg xmlns="http://www.w3.org/2000/svg" width="24" height="24" fill="none"><path fill="currentColor" fill-rule="evenodd" d="M12.001 4.35a.81.81 0 0 1 .727.451l2.032 4.12 4.547.661a.81.81 0 0 1 .449 1.381l-3.29 3.208.777 4.526a.81.81 0 0 1-1.175.855L12 17.413l-4.067 2.139a.809.809 0 0 1-1.175-.854l.778-4.529-3.292-3.206a.81.81 0 0 1 .45-1.382l4.546-.66 2.033-4.12A.81.81 0 0 1 12 4.35m0 2.64-1.496 3.03a.81.81 0 0 1-.609.442l-3.344.486 2.419 2.359a.81.81 0 0 1 .233.717l-.57 3.33 2.99-1.572a.81.81 0 0 1 .754 0l2.991 1.572-.572-3.33a.81.81 0 0 1 .233-.717l2.42-2.358-3.344-.486a.81.81 0 0 1-.61-.442z" clip-rule="evenodd"/><path fill="currentColor" d="m7.934 19.552 4.067-2.139V4.35a.81.81 0 0 0-.727.451l-2.033 4.12-4.547.66a.81.81 0 0 0-.449 1.382l3.292 3.207-.778 4.528a.81.81 0 0 0 1.175.854"/></svg>