<svg xmlns="http://www.w3.org/2000/svg" viewBox="0 0 533.31 533.31"><path fill="currentColor" d="M266.655 2.542C120.789 2.542 2.542 120.789 2.542 266.655s118.247 264.113 264.113 264.113 264.113-118.247 264.113-264.113S412.521 2.542 266.655 2.542m104.01 67.283c2.877.134 5.167 1.168 6.615 2.285 1.93 1.49 5.06 2.73 5.81 4.47.15.74-.6 2.83 3.58 3.58s6.971 1.811 6.971 1.811 6.8 1.87 1.35 3.36c-5.51.89-8.92-.31-10.56.74s-3.13 4.38-4.17 4.83-3.13.15-5.21 1.79-4.171 2.979-5.511 6.259-2.379 6.851-1.489 11.621 3.72 13.71 6.26 18.77c2.53 5.07 8.79 17.73 10.58 20.71s6.85 12.81 7.3 23.39.45 19.219 0 23.839-4.71 22.452-15.44 37.352c-3.54 6.14-10.091 13.858-10.721 15.218s-1.31 2.12-.7 3.32c2.01 3.93 5.591 9.62 6.391 12.7 1 2.89 3.04 7.01 3.14 12.48h-.04c.1 5.47-5.19 22.37-16.81 35.33s-24.341 9.06-25.391 8.76-1.34-1.939-3.43-1.639-4.17 2.68-8.19 3.13-7.6.74-11.32-.6c-1.94.3-2.229.31-3.129.97s-7.75 4.689-9.39 4.989c0 3.13-.6 19.37 0 24.29s1.64 11.171 3.28 15.641 1.19 4.619 3.28 4.319 5.81.15 6.85 1.79.599 2.83 2.379 3.58 26.37 7.45 43.21 8.34c11.62.3 18.621 1.19 22.651 8.49.6 3.43 3.28 5.66 4.92 6.11s3.58.892 5.21 2.532.45 3.578 2.38 5.068c1.94 1.49 6.41 3.72 11.03 5.96 4.62 2.23 6.559 5.81 6.849 7s.74 4.77.74 4.77-3.87 0-4.77-.89-1.189-2.53-1.189-2.53-2.681.45-3.281 1.49.3 1.191-3.43.301-5.07-1.64-7.9-3.72-7.15-7.451-10.88-7.301c1.79 3.58 2.53 3.581 4.62 4.771s3.58 2.53 3.58 2.53l-3.129 1.94s-1.94.89-6.41-.3-5.07-1.94-5.51-4.62 0-4.02-1.191-6.26c-1.19-2.24-1.79-6.85-9.68-9.24-7.9-2.38-28.91-9.241-43.51-10.731s-9.83-1.19-12.22-.6-6.849 1.94-11.469-.6c-4.62-2.53-7.3-5.958-7.6-8.788s-.74-4.772 0-8.342 1.49-8.64.74-11.62-6.11-24.289-8.64-27.859c-5.66.45-22.05-.3-22.05-.3s-1.04-.301-7.6 2.529-15.85 5.98-20.32 8.66-6.26 4.22-7 5.71c.05 1.3-.53 3.35-1.21 3.94s-5.42 1.051-5.42 1.051-2.54 2.54-3.58 4.33c-2.98 4.17-23.99 54.38-28.91 65.11-5.89 14.15-4.25 11.92-16.39 11.92s-3.5.13-3.5.13-5.361 2.55-7.301 2.55-8.189-1.04-11.469 0-7.15 4.02-10.13 4.47-2.15-.581-3.64-1.631c-1.74-.09-6.2-.049-6.2-.049s.759-2.83 3.439-4.73c3.58-2.53 11.03-7 15.05-9.24 4.02-2.23 7.601-3.43 10.131-4.02 2.53-.6 8.05-2.68 13.26-4.32s8.49-3.58 12.96-13.71S200.09 358.79 200.54 356.7c.28-1.29 1.622-2.809 2.092-6.559.29-2.32-1.082-5.67.738-9.83 4.77-10.88 9.39-8.79 11.47-8.79s7.451.15 11.471-.6c4.02-.74 6.699-1.19 10.729-3.43 4.02-2.23 4.922-3.871 4.922-3.871l-8.641-1.488s-8.05.298-10.88-1.942-6.7-6.85-6.7-6.85l-3.28-3.128.45 3.718s-2.23-3.868-2.83-4.468-3.72-2.832-4.92-4.922-3.28-10.88-3.28-10.88l-2.681 5.661-.738-8.19-2.23 3.13-1.192-7-2.09 3.58-1.488-6.26-2.532 1.94-1.039-4.47-2.531-1.49s-6.108-4.02-7.148-4.17-1.942 1.49-1.942 1.49l.6 5.21-5.299-2.721-3.041-5.17s1.02 1.741-4.18 3.271c-8.93 0-9.51-.99-10.83-1.71-.57-2.85-2.42-4.391-2.42-4.391h-8.94l-.15-2.979-3.43 1.34.302-4.47h-6.112l.451-4.92h-3.87s1.34-4.02 11.17-9.98 10.88-7.15 20.11-7.45c9.24-.3 14.3 1.19 20.11 3.58 5.81 2.38 16.84 5.96 19.07 7.6 4.92-4.32 12.37-8.641 14.9-8.641.45-1.04 2.69-5.358 7.81-7.648 15.34-6.87 46.99-14.782 57.16-15.452 13.56-.89 3.43-.599 16.99.891s23.54 3.28 30.25 5.51c5.46 1.82 10.88 4.17 14.9.89 1.88-.79 5.13-.58 7.75-2.23 13.34-10.9 15.089-14.06 18.959-18.23s8.75-10.83 9.8-19.62 1.942-25.33-4.618-38.29-12.521-19.67-15.051-30.1-3.58-26.52-2.68-31.74 2.23-9.68 2.98-13.26 4.32-6.41 8.64-7.15c1.08-.186 2.105-.24 3.064-.196"/></svg>