<svg xmlns="http://www.w3.org/2000/svg" width="25" height="24" fill="none"><path fill="currentColor" fill-rule="evenodd" d="M12.75.3c-6.6 0-12 5.4-12 12 0 5.325 3.45 9.825 8.175 11.4.6.075.825-.225.825-.6v-2.025C6.375 21.825 5.7 19.5 5.7 19.5c-.525-1.35-1.35-1.725-1.35-1.725-1.125-.75.075-.75.075-.75 1.2.075 1.875 1.2 1.875 1.2 1.05 1.8 2.775 1.275 3.525.975a2.6 2.6 0 0 1 .75-1.575c-2.7-.3-5.475-1.35-5.475-5.925 0-1.275.45-2.4 1.2-3.225-.15-.3-.525-1.5.15-3.15 0 0 .975-.3 3.3 1.2.975-.3 1.95-.375 3-.375s2.025.15 3 .375c2.325-1.575 3.3-1.275 3.3-1.275.675 1.65.225 2.85.15 3.15.75.825 1.2 1.875 1.2 3.225 0 4.575-2.775 5.625-5.475 5.925.45.375.825 1.125.825 2.25v3.3c0 .3.225.675.825.6a12.015 12.015 0 0 0 8.175-11.4c0-6.6-5.4-12-12-12" clip-rule="evenodd"/></svg>