<svg xmlns="http://www.w3.org/2000/svg" width="206" height="206" fill="none"><path fill="currentColor" d="m163.012 19.596 1.082 21.794c17.667 19.519 24.641 47.161 15.846 73.14-13.129 38.782-56.419 59.169-96.693 45.535-40.272-13.633-62.278-56.124-49.15-94.905 8.825-26.066 31.275-43.822 57.276-48.524L105.422.038C61.592-1.15 20.242 26.056 5.448 69.76c-18.178 53.697 10.616 111.963 64.314 130.142 53.698 18.178 111.964-10.617 130.143-64.315 14.77-43.633-1.474-90.283-36.893-115.99"/><path fill="currentColor" d="m137.097 53.436-.596-17.531-.404-15.189s.084-7.322-.17-9.043a2.8 2.8 0 0 0-.305-.914l-.05-.109-.06-.094a2.38 2.38 0 0 0-1.293-1.07 2.38 2.38 0 0 0-1.714.078l-.033.014-.18.092a2.8 2.8 0 0 0-.75.518c-1.25 1.212-5.63 7.08-5.63 7.08l-9.547 11.82-11.123 13.563-19.098 23.75s-8.763 10.938-6.827 24.4c1.937 13.464 11.946 20.022 19.71 22.65 7.765 2.63 19.7 3.5 29.417-6.019 9.716-9.518 9.397-23.53 9.397-23.53z"/></svg>