<svg xmlns="http://www.w3.org/2000/svg" width="37" height="37" fill="none"><path fill="currentColor" d="M36 18c0 9.945-8.055 18-18 18S0 27.945 0 18 8.055 0 18 0s18 8.055 18 18m-21.294 9.495c7.983 0 12.348-6.615 12.348-12.348 0-.189 0-.378-.009-.558a8.9 8.9 0 0 0 2.169-2.25 8.8 8.8 0 0 1-2.493.684 4.34 4.34 0 0 0 1.908-2.403 8.8 8.8 0 0 1-2.754 1.053 4.32 4.32 0 0 0-3.168-1.368 4.34 4.34 0 0 0-4.338 4.338c0 .342.036.675.117.99a12.3 12.3 0 0 1-8.946-4.536 4.35 4.35 0 0 0-.585 2.178 4.32 4.32 0 0 0 1.935 3.609 4.26 4.26 0 0 1-1.962-.54v.054a4.345 4.345 0 0 0 3.483 4.257 4.3 4.3 0 0 1-1.962.072 4.33 4.33 0 0 0 4.05 3.015 8.72 8.72 0 0 1-6.426 1.791 12.1 12.1 0 0 0 6.633 1.962"/></svg>