<svg xmlns="http://www.w3.org/2000/svg" width="24" height="24" fill="none"><path fill="currentColor" d="M12 5a.867.867 0 0 0-.875.875c0 .49.385.875.875.875s.875-.385.875-.875A.867.867 0 0 0 12 5M7.625 6.75a.867.867 0 0 0-.875.875c0 .49.385.875.875.875s.875-.385.875-.875a.867.867 0 0 0-.875-.875m8.75 0a.867.867 0 0 0-.875.875c0 .49.385.875.875.875s.875-.385.875-.875a.867.867 0 0 0-.875-.875M12 8.5A3.51 3.51 0 0 0 8.5 12a3.51 3.51 0 0 0 3.5 3.5 3.51 3.51 0 0 0 3.5-3.5A3.51 3.51 0 0 0 12 8.5m-6.125 2.625A.867.867 0 0 0 5 12c0 .49.385.875.875.875s.875-.385.875-.875a.867.867 0 0 0-.875-.875m12.25 0a.867.867 0 0 0-.875.875c0 .49.385.875.875.875S19 12.49 19 12a.867.867 0 0 0-.875-.875M7.625 15.5a.867.867 0 0 0-.875.875c0 .49.385.875.875.875s.875-.385.875-.875a.867.867 0 0 0-.875-.875m8.75 0a.867.867 0 0 0-.875.875c0 .49.385.875.875.875s.875-.385.875-.875a.867.867 0 0 0-.875-.875M12 17.25a.867.867 0 0 0-.875.875c0 .49.385.875.875.875s.875-.385.875-.875A.867.867 0 0 0 12 17.25"/></svg>