<svg xmlns="http://www.w3.org/2000/svg" width="32" height="32" fill="none"><path fill="currentColor" d="M21.391 14.03a4.173 4.173 0 1 1-.084-8.345 4.173 4.173 0 0 1 .084 8.345m0-6.507a2.348 2.348 0 0 0-1.672 3.999 2.4 2.4 0 0 0 3.315 0 2.348 2.348 0 0 0-1.657-4z"/><path fill="currentColor" d="M11.33 29.993a2.48 2.48 0 0 1-1.746-.727L7.81 27.484l-.094.124A2.851 2.851 0 0 1 3.68 23.58l10.491-10.513a7.888 7.888 0 1 1 4.028 4.035l-3.105 3.105 1.23 1.228a2.46 2.46 0 0 1 0 3.49 2.523 2.523 0 0 1-3.483 0l-1.23-1.236-.32.32 1.782 1.781A2.473 2.473 0 0 1 11.33 30zm-3.52-4.697a.9.9 0 0 1 .64.262l2.421 2.428a.676.676 0 0 0 .916 0 .647.647 0 0 0 0-.916l-2.42-2.421a.9.9 0 0 1-.27-.676.9.9 0 0 1 .27-.64l1.628-1.541a.91.91 0 0 1 1.287 0l1.876 1.875a.66.66 0 0 0 .908 0 .65.65 0 0 0 .197-.458.67.67 0 0 0-.19-.458l-1.897-1.905a.92.92 0 0 1-.2-.994.9.9 0 0 1 .2-.292l4.21-4.21a.9.9 0 0 1 1.083-.153 6.084 6.084 0 1 0-2.385-2.391.9.9 0 0 1-.153 1.076L4.968 24.83a1.032 1.032 0 0 0 1.454 1.454l.727-.727a.93.93 0 0 1 .661-.262"/></svg>