<svg xmlns="http://www.w3.org/2000/svg" width="32" height="32" fill="none"><path fill="currentColor" d="M26.536 7.087h-.575V3.255c0-1.15-.574-2.108-1.34-2.683s-1.917-.766-2.875-.574L4.117 5.363C2.01 5.938.668 7.853.668 9.962v17.437c0 2.682 2.108 4.79 4.79 4.79h21.078c2.683 0 4.79-2.108 4.79-4.79v-15.33c0-2.682-2.107-4.982-4.79-4.982m-21.844 0 17.437-5.173c.383-.192.958 0 1.341.191.384.192.575.767.575 1.15v3.832H5.458c-.574 0-.958.192-1.533.384.192-.192.575-.384.767-.384m24.719 20.12c0 1.533-1.342 2.874-2.875 2.874H5.458c-1.533 0-2.874-1.34-2.874-2.874V11.878c0-1.533 1.341-2.874 2.874-2.874h21.078c1.533 0 2.874 1.34 2.874 2.874z"/><path fill="currentColor" d="M25.96 21.649a1.916 1.916 0 1 0 0-3.833 1.916 1.916 0 0 0 0 3.833"/></svg>