<svg xmlns="http://www.w3.org/2000/svg" width="24" height="24" fill="none"><g fill="currentColor"><path d="M16.383 10.781a3.046 3.046 0 1 1-.062-6.091 3.046 3.046 0 0 1 .062 6.091m0-4.75a1.714 1.714 0 0 0-1.22 2.919 1.75 1.75 0 0 0 2.419 0 1.714 1.714 0 0 0-1.21-2.919z" style="stroke-width:.729924" transform="translate(-.494 -.22)"/><path d="M9.039 22.433a1.8 1.8 0 0 1-1.275-.53L6.47 20.6l-.069.091a2.081 2.081 0 0 1-2.946-2.94l7.658-7.674a5.758 5.758 0 1 1 2.94 2.945l-2.267 2.267.898.896a1.796 1.796 0 0 1 0 2.548 1.84 1.84 0 0 1-2.542 0l-.898-.903-.234.234 1.301 1.3a1.805 1.805 0 0 1-1.272 3.073zm-2.57-3.429a.66.66 0 0 1 .468.192l1.767 1.772a.493.493 0 0 0 .668 0 .47.47 0 0 0 0-.669l-1.766-1.767a.66.66 0 0 1-.197-.493.65.65 0 0 1 .197-.467l1.188-1.125a.664.664 0 0 1 .94 0l1.368 1.368a.48.48 0 0 0 .665 0 .47.47 0 0 0 .143-.334.5.5 0 0 0-.139-.334l-1.385-1.39a.67.67 0 0 1-.146-.726.7.7 0 0 1 .146-.213l3.073-3.073a.66.66 0 0 1 .79-.112 4.44 4.44 0 1 0-1.74-1.745.66.66 0 0 1-.112.784l-8.002 7.993a.753.753 0 0 0 1.061 1.061l.531-.53a.68.68 0 0 1 .483-.192z" style="stroke-width:.729924" transform="translate(-.494 -.22)"/></g></svg>