<svg viewBox="0 0 533.31 533.31" version="1.1" xmlns="http://www.w3.org/2000/svg"><path d="M266.655 2.542C120.789 2.542 2.542 120.789 2.542 266.655c0 145.866 118.247 264.113 264.113 264.113 145.866 0 264.113-118.247 264.113-264.113 0-145.866-118.247-264.113-264.113-264.113Zm104.01 67.283c2.877.134 5.167 1.168 6.615 2.285 1.93 1.49 5.06 2.73 5.81 4.47.15.74-.6 2.83 3.58 3.58s6.971 1.811 6.971 1.811 6.8 1.87 1.35 3.36c-5.51.89-8.92-.31-10.56.74-1.64 1.05-3.13 4.38-4.17 4.83-1.04.45-3.13.15-5.21 1.79-2.08 1.64-4.171 2.979-5.511 6.259-1.34 3.28-2.379 6.851-1.489 11.621.89 4.77 3.72 13.71 6.26 18.77 2.53 5.07 8.79 17.73 10.58 20.71 1.79 2.98 6.85 12.81 7.3 23.39.45 10.58.45 19.219 0 23.839-.45 4.62-4.71 22.452-15.44 37.352-3.54 6.14-10.091 13.858-10.721 15.218-.63 1.36-1.31 2.12-.7 3.32 2.01 3.93 5.591 9.62 6.391 12.7 1 2.89 3.04 7.01 3.14 12.48h-.04c.1 5.47-5.19 22.37-16.81 35.33-11.62 12.96-24.341 9.06-25.391 8.76-1.05-.3-1.34-1.939-3.43-1.639-2.09.3-4.17 2.68-8.19 3.13-4.02.45-7.6.74-11.32-.6-1.94.3-2.229.31-3.129.97-.9.66-7.75 4.689-9.39 4.989 0 3.13-.6 19.37 0 24.29.6 4.92 1.64 11.171 3.28 15.641 1.64 4.47 1.19 4.619 3.28 4.319 2.09-.3 5.81.15 6.85 1.79 1.04 1.64.599 2.83 2.379 3.58s26.37 7.45 43.21 8.34c11.62.3 18.621 1.19 22.651 8.49.6 3.43 3.28 5.66 4.92 6.11 1.64.45 3.58.892 5.21 2.532 1.63 1.64.45 3.578 2.38 5.068 1.94 1.49 6.41 3.72 11.03 5.96 4.62 2.23 6.559 5.81 6.849 7 .29 1.19.74 4.77.74 4.77s-3.87 0-4.77-.89c-.9-.89-1.189-2.53-1.189-2.53s-2.681.45-3.281 1.49c-.6 1.04.3 1.191-3.43.301-3.73-.89-5.07-1.64-7.9-3.72s-7.15-7.451-10.88-7.301c1.79 3.58 2.53 3.581 4.62 4.771 2.09 1.19 3.58 2.53 3.58 2.53l-3.129 1.94s-1.94.89-6.41-.3c-4.47-1.19-5.07-1.94-5.51-4.62-.44-2.68 0-4.02-1.191-6.26-1.19-2.24-1.79-6.85-9.68-9.24-7.9-2.38-28.91-9.241-43.51-10.731-14.6-1.49-9.83-1.19-12.22-.6-2.39.59-6.849 1.94-11.469-.6-4.62-2.53-7.3-5.958-7.6-8.788-.3-2.83-.74-4.772 0-8.342.74-3.57 1.49-8.64.74-11.62-.75-2.98-6.11-24.289-8.64-27.859-5.66.45-22.05-.3-22.05-.3s-1.04-.301-7.6 2.529-15.85 5.98-20.32 8.66c-4.47 2.68-6.26 4.22-7 5.71.05 1.3-.53 3.35-1.21 3.94-.68.59-5.42 1.051-5.42 1.051s-2.54 2.54-3.58 4.33c-2.98 4.17-23.99 54.38-28.91 65.11-5.89 14.15-4.25 11.92-16.39 11.92s-3.5.13-3.5.13-5.361 2.55-7.301 2.55c-1.94 0-8.189-1.04-11.469 0-3.28 1.04-7.15 4.02-10.13 4.47-2.98.45-2.15-.581-3.64-1.631-1.74-.09-6.2-.049-6.2-.049s.759-2.83 3.439-4.73c3.58-2.53 11.03-7 15.05-9.24 4.02-2.23 7.601-3.43 10.131-4.02 2.53-.6 8.05-2.68 13.26-4.32 5.21-1.64 8.49-3.58 12.96-13.71 4.47-10.13 21.899-48.421 22.349-50.511.28-1.29 1.622-2.809 2.092-6.559.29-2.32-1.082-5.67.738-9.83 4.77-10.88 9.39-8.79 11.47-8.79s7.451.15 11.471-.6c4.02-.74 6.699-1.19 10.729-3.43 4.02-2.23 4.922-3.871 4.922-3.871l-8.641-1.488s-8.05.298-10.88-1.942c-2.83-2.24-6.7-6.85-6.7-6.85l-3.28-3.128.45 3.718s-2.23-3.868-2.83-4.468c-.6-.6-3.72-2.832-4.92-4.922-1.2-2.09-3.28-10.88-3.28-10.88l-2.681 5.661-.738-8.19-2.23 3.13-1.192-7-2.09 3.58-1.488-6.26-2.532 1.94-1.039-4.47-2.531-1.49s-6.108-4.02-7.148-4.17c-1.04-.15-1.942 1.49-1.942 1.49l.6 5.21-5.299-2.721-3.041-5.17s1.02 1.741-4.18 3.271c-8.93 0-9.51-.99-10.83-1.71-.57-2.85-2.42-4.391-2.42-4.391h-8.94l-.15-2.979-3.43 1.34.302-4.47h-6.112l.451-4.92h-3.87s1.34-4.02 11.17-9.98c9.83-5.96 10.88-7.15 20.11-7.45 9.24-.3 14.3 1.19 20.11 3.58 5.81 2.38 16.84 5.96 19.07 7.6 4.92-4.32 12.37-8.641 14.9-8.641.45-1.04 2.69-5.358 7.81-7.648 15.34-6.87 46.99-14.782 57.16-15.452 13.56-.89 3.43-.599 16.99.891 13.56 1.49 23.54 3.28 30.25 5.51 5.46 1.82 10.88 4.17 14.9.89 1.88-.79 5.13-.58 7.75-2.23 13.34-10.9 15.089-14.06 18.959-18.23 3.87-4.17 8.75-10.83 9.8-19.62 1.05-8.79 1.942-25.33-4.618-38.29-6.56-12.96-12.521-19.67-15.051-30.1-2.53-10.43-3.58-26.52-2.68-31.74.9-5.22 2.23-9.68 2.98-13.26s4.32-6.41 8.64-7.15c1.08-.186 2.105-.24 3.064-.196z" fill="currentColor"/></svg>
