<svg width="37" height="37" viewBox="0 0 37 37" fill="none" xmlns="http://www.w3.org/2000/svg">
<path d="M36 18c0 9.945-8.055 18-18 18S0 27.945 0 18 8.055 0 18 0s18 8.055 18 18zm-21.294 9.495c7.983 0 12.348-6.615 12.348-12.348 0-.189 0-.378-.009-.558a8.891 8.891 0 0 0 2.169-2.25 8.808 8.808 0 0 1-2.493.684 4.337 4.337 0 0 0 1.908-2.403 8.788 8.788 0 0 1-2.754 1.053 4.319 4.319 0 0 0-3.168-1.368 4.34 4.34 0 0 0-4.338 4.338c0 .342.036.675.117.99a12.311 12.311 0 0 1-8.946-4.536 4.353 4.353 0 0 0-.585 2.178 4.32 4.32 0 0 0 1.935 3.609 4.263 4.263 0 0 1-1.962-.54v.054a4.345 4.345 0 0 0 3.483 4.257 4.326 4.326 0 0 1-1.962.072 4.333 4.333 0 0 0 4.05 3.015 8.724 8.724 0 0 1-6.426 1.791 12.091 12.091 0 0 0 6.633 1.962z" fill="currentColor"/>
</svg>
