<svg width="24" height="24" viewBox="0 0 24 24" fill="none" xmlns="http://www.w3.org/2000/svg">
<path d="M16.6858 5.54919L11.9452 10.3416L7.20314 5.49379L7.20314 5.49379L7.20167 5.4923C6.71724 5.00257 5.97108 5.00257 5.48664 5.4923L5.48664 5.4923C5.00445 5.97977 5.00445 6.72702 5.48664 7.21448L10.2344 12.0142L5.48664 16.814C5.00445 17.3014 5.00445 18.0487 5.48664 18.5361L5.48664 18.5361C5.75044 18.8028 6.0883 18.875 6.37226 18.875C6.65621 18.875 6.99412 18.8028 7.25793 18.5361L12 13.7422L16.742 18.5361C17.0058 18.8028 17.3437 18.875 17.6277 18.875C17.9116 18.875 18.2495 18.8028 18.5134 18.5361C18.9955 18.0487 18.9955 17.3014 18.5134 16.814L18.5134 16.8139L18.5089 16.8095L13.6574 12.0667L18.4008 7.27138C18.883 6.78391 18.883 6.03666 18.4008 5.54919C17.9163 5.05946 17.1702 5.05946 16.6858 5.54919Z" fill="currentColor" stroke="currentColor" stroke-width="0.75"/>
</svg>
