<svg width="24" height="24" viewBox="0 0 24 24" fill="none" xmlns="http://www.w3.org/2000/svg">
<path d="M5.253 13.255L10.7739 13.225L10.7438 18.7458C10.7418 19.1291 10.9344 19.4185 11.1245 19.6087C11.3147 19.7988 11.6041 19.9914 11.9874 19.9894C12.6676 19.9857 13.1958 19.4575 13.1995 18.7772L13.1995 18.7772L13.1994 18.7689L13.1365 13.2121L18.6599 13.1821C19.3402 13.1784 19.8684 12.6502 19.8721 11.9699C19.8758 11.2854 19.3468 10.7564 18.6622 10.7601L13.1442 10.7901L13.2054 5.23803L13.2054 5.23803L13.2054 5.23523C13.2092 4.5507 12.6802 4.02169 11.9956 4.02541L11.9956 4.02541C11.3153 4.02912 10.7872 4.55724 10.7835 5.23753L10.7534 10.7693L5.22163 10.7994C4.54134 10.8031 4.01322 11.3312 4.00952 12.0115C4.00743 12.3947 4.19999 12.6841 4.39017 12.8743C4.58032 13.0645 4.86979 13.2571 5.253 13.255Z" fill="currentColor" stroke="currentColor"/>
</svg>
