<svg width="24" height="24" viewBox="0 0 24 24" fill="none" xmlns="http://www.w3.org/2000/svg">
<path d="M11.9961 7.92307C11.6767 7.92307 11.4118 8.03994 11.1625 8.28924L5.29605 14.2881C5.09349 14.4907 5 14.7322 5 15.0205C5 15.6048 5.45965 16.08 6.04396 16.08C6.33222 16.08 6.59711 15.9553 6.80746 15.745L11.9883 10.4161L17.1848 15.745C17.3951 15.9553 17.6522 16.08 17.9482 16.08C18.5326 16.08 19 15.6048 19 15.0205C19 14.7322 18.8987 14.4907 18.6962 14.2881L12.8297 8.28924C12.5804 8.03214 12.3155 7.92307 11.9961 7.92307Z" fill="currentColor"/>
</svg>
