<svg width="24" height="24" viewBox="0 0 24 24" fill="none" xmlns="http://www.w3.org/2000/svg">
<rect x="1" y="1" width="22" height="22" rx="3" stroke="currentColor" stroke-width="2"/>
<path d="M15.5684 17H8.31543V15.2227L10.7559 12.7549C11.2617 12.2262 11.6536 11.8024 11.9316 11.4834C12.2142 11.1644 12.4124 10.8932 12.5264 10.6699C12.6403 10.4466 12.6973 10.2142 12.6973 9.97266C12.6973 9.67643 12.6016 9.46224 12.4102 9.33008C12.2188 9.19792 11.9932 9.13184 11.7334 9.13184C11.4189 9.13184 11.0999 9.22298 10.7764 9.40527C10.4574 9.58301 10.0951 9.84733 9.68945 10.1982L8.20605 8.46191C8.50684 8.19303 8.82585 7.93783 9.16309 7.69629C9.50033 7.4502 9.89909 7.24967 10.3594 7.09473C10.8197 6.93978 11.3802 6.8623 12.041 6.8623C12.7201 6.8623 13.3079 6.98079 13.8047 7.21777C14.306 7.45475 14.6934 7.7806 14.9668 8.19531C15.2402 8.60547 15.377 9.07259 15.377 9.59668C15.377 10.1755 15.2699 10.6927 15.0557 11.1484C14.846 11.5996 14.5293 12.0531 14.1055 12.5088C13.6816 12.96 13.153 13.4727 12.5195 14.0469L11.7881 14.7031V14.7715H15.5684V17Z" fill="currentColor"/>
</svg>
