<svg width="24" height="24" viewBox="0 0 24 24" fill="none" xmlns="http://www.w3.org/2000/svg">
<g clip-path="url(#clip)">
<path fill-rule="evenodd" clip-rule="evenodd" d="M24 12C24 15.1826 22.7357 18.2348 20.4853 20.4853C18.2348 22.7357 15.1826 24 12 24C8.8174 24 5.76516 22.7357 3.51472 20.4853C1.26428 18.2348 0 15.1826 0 12C0 8.8174 1.26428 5.76516 3.51472 3.51472C5.76516 1.26428 8.8174 0 12 0C15.1826 0 18.2348 1.26428 20.4853 3.51472C22.7357 5.76516 24 8.8174 24 12ZM17.2215 9.38299C17.2267 9.67444 17.1185 9.95651 16.9198 10.1698L11.6698 15.4198C11.4588 15.6304 11.1729 15.7488 10.8748 15.7488C10.5766 15.7488 10.2907 15.6304 10.0798 15.4198L7.07977 12.4198C6.88105 12.2065 6.77286 11.9244 6.77801 11.633C6.78315 11.3415 6.90122 11.0635 7.10734 10.8573C7.31346 10.6512 7.59153 10.5331 7.88299 10.528C8.17444 10.5229 8.45651 10.631 8.66977 10.8298L10.8748 13.0348L15.3298 8.57977C15.543 8.38105 15.8251 8.27287 16.1166 8.27801C16.408 8.28315 16.6861 8.40122 16.8922 8.60734C17.0983 8.81346 17.2164 9.09153 17.2215 9.38299Z" fill="#51B13E"/>
</g>
<defs>
<clipPath id="clip">
<rect width="24" height="24" fill="white"/>
</clipPath>
</defs>
</svg>
