<svg width="24" height="24" viewBox="0 0 24 24" fill="none" xmlns="http://www.w3.org/2000/svg">
<path d="M3.51481 20.4858C2.40048 19.3715 1.51654 18.0486 0.913469 16.5926C0.310397 15.1367 1.17414e-08 13.5762 0 12.0003C-1.17414e-08 10.4244 0.310397 8.86393 0.913469 7.40799C1.51654 5.95204 2.40048 4.62914 3.51481 3.51481C4.62914 2.40048 5.95204 1.51654 7.40799 0.913469C8.86393 0.310397 10.4244 -1.17414e-08 12.0003 0C13.5762 1.17414e-08 15.1367 0.310397 16.5926 0.913469C18.0486 1.51654 19.3715 2.40048 20.4858 3.51481C22.7363 5.7653 24.0006 8.81763 24.0006 12.0003C24.0006 15.183 22.7363 18.2353 20.4858 20.4858C18.2353 22.7363 15.183 24.0006 12.0003 24.0006C8.81763 24.0006 5.7653 22.7363 3.51481 20.4858ZM9.04531 7.45531C8.83205 7.25659 8.54998 7.1484 8.25852 7.15355C7.96707 7.15869 7.689 7.27676 7.48288 7.48288C7.27676 7.689 7.15869 7.96707 7.15355 8.25852C7.1484 8.54998 7.25659 8.83205 7.45531 9.04531L10.4103 12.0003L7.45531 14.9553C7.34478 15.0583 7.25613 15.1825 7.19464 15.3205C7.13315 15.4585 7.10009 15.6075 7.09742 15.7585C7.09476 15.9096 7.12254 16.0596 7.17912 16.1997C7.23571 16.3398 7.31992 16.467 7.42675 16.5739C7.53358 16.6807 7.66083 16.7649 7.80091 16.8215C7.94099 16.8781 8.09104 16.9059 8.24209 16.9032C8.39315 16.9005 8.54212 16.8675 8.68012 16.806C8.81812 16.7445 8.94232 16.6558 9.04531 16.5453L12.0003 13.5903L14.9553 16.5453C15.0583 16.6558 15.1825 16.7445 15.3205 16.806C15.4585 16.8675 15.6075 16.9005 15.7585 16.9032C15.9096 16.9059 16.0596 16.8781 16.1997 16.8215C16.3398 16.7649 16.467 16.6807 16.5739 16.5739C16.6807 16.467 16.7649 16.3398 16.8215 16.1997C16.8781 16.0596 16.9059 15.9096 16.9032 15.7585C16.9005 15.6075 16.8675 15.4585 16.806 15.3205C16.7445 15.1825 16.6558 15.0583 16.5453 14.9553L13.5903 12.0003L16.5453 9.04531C16.6558 8.94232 16.7445 8.81812 16.806 8.68012C16.8675 8.54212 16.9005 8.39315 16.9032 8.24209C16.9059 8.09104 16.8781 7.94099 16.8215 7.80091C16.7649 7.66083 16.6807 7.53358 16.5739 7.42675C16.467 7.31992 16.3398 7.23571 16.1997 7.17912C16.0596 7.12254 15.9096 7.09476 15.7585 7.09742C15.6075 7.10009 15.4585 7.13315 15.3205 7.19464C15.1825 7.25613 15.0583 7.34478 14.9553 7.45531L12.0003 10.4103L9.04531 7.45531Z" fill="#E11900"/>
</svg>
