<svg width="24" height="24" viewBox="0 0 24 24" fill="none" xmlns="http://www.w3.org/2000/svg">
<path d="M11.0697 2.35872C11.4027 1.51457 12.5973 1.51457 12.9303 2.35872L15.2348 8.20186C15.3364 8.45958 15.5404 8.66359 15.7981 8.76523L21.6413 11.0697C22.4854 11.4027 22.4854 12.5973 21.6413 12.9303L15.7981 15.2348C15.5404 15.3364 15.3364 15.5404 15.2348 15.7981L12.9303 21.6413C12.5973 22.4854 11.4027 22.4854 11.0697 21.6413L8.76523 15.7981C8.66359 15.5404 8.45958 15.3364 8.20186 15.2348L2.35872 12.9303C1.51457 12.5973 1.51457 11.4027 2.35872 11.0697L8.20186 8.76523C8.45958 8.66359 8.66359 8.45958 8.76523 8.20186L11.0697 2.35872Z" fill="#1F6FEB"/>
</svg>
