<svg width="24" height="24" viewBox="0 0 24 24" fill="none" xmlns="http://www.w3.org/2000/svg">
<g clip-path="url(#clip)">
<path fill-rule="evenodd" clip-rule="evenodd" d="M1.04907e-06 12C1.62846e-06 5.37258 5.37259 -1.62846e-06 12 -1.04907e-06C18.6274 -4.69686e-07 24 5.37258 24 12C24 18.6274 18.6274 24 12 24C5.37258 24 4.69686e-07 18.6274 1.04907e-06 12ZM7.95448 16.0455C7.51515 15.6061 7.51518 14.8938 7.95453 14.4545L12.534 9.87527L10.1851 9.87527C9.56375 9.87527 9.06007 9.37159 9.06007 8.75027C9.06007 8.12895 9.56375 7.62527 10.1851 7.62527L15.25 7.62527C15.4438 7.62527 15.6261 7.67426 15.7852 7.76051L15.7976 7.76729C15.8394 7.79062 15.8801 7.81683 15.9193 7.84592C15.9995 7.90539 16.0715 7.97527 16.1334 8.05357C16.187 8.12135 16.2317 8.19388 16.2674 8.26958C16.3364 8.41534 16.375 8.5783 16.375 8.75027L16.375 8.75037L16.375 13.5C16.375 14.1213 15.8713 14.625 15.25 14.625C14.6287 14.625 14.125 14.1213 14.125 13.5L14.125 11.4663L9.54547 16.0455C9.10612 16.4848 8.39381 16.4848 7.95448 16.0455Z" fill="#51B13E"/>
</g>
<defs>
<clipPath id="clip">
<rect width="24" height="24" fill="white"/>
</clipPath>
</defs>
</svg>
