<svg width="24" height="24" viewBox="0 0 24 24" fill="none" xmlns="http://www.w3.org/2000/svg">
<path d="M13.3853 12.0875L19.5498 5.85558C19.9653 5.43545 19.9653 4.80525 19.5498 4.38512C19.1342 3.96499 18.5108 3.96499 18.0952 4.38512L11.9307 10.6171L5.76623 4.3151C5.35065 3.89497 4.72727 3.89497 4.31169 4.3151C3.8961 4.73523 3.8961 5.36543 4.31169 5.78556L10.4762 12.0175L4.31169 18.2495C3.8961 18.6696 3.8961 19.2998 4.31169 19.7199C4.51948 19.93 4.7965 20 5.07355 20C5.35061 20 5.62769 19.93 5.83548 19.7199L12 13.488L18.1645 19.7199C18.3722 19.93 18.6493 20 18.9264 20C19.2034 20 19.4805 19.93 19.6883 19.7199C20.1039 19.2998 20.1039 18.6696 19.6883 18.2495L13.3853 12.0875Z" fill="currentColor"/>
</svg>
