<svg width="24" height="24" viewBox="0 0 24 24" fill="none" xmlns="http://www.w3.org/2000/svg">
<path d="M9.1638 12.4922C11.339 12.4922 13.1023 10.7288 13.1023 8.5537C13.1023 6.37854 11.339 4.61523 9.1638 4.61523C6.98865 4.61523 5.22534 6.37854 5.22534 8.5537C5.22534 10.7288 6.98865 12.4922 9.1638 12.4922Z" fill="none" stroke="currentColor" stroke-width="1.5" stroke-linecap="round" stroke-linejoin="round" /><path d="M15.9331 18.0307C17.4965 18.0307 18.7638 16.7633 18.7638 15.1999C18.7638 13.6365 17.4965 12.3691 15.9331 12.3691C14.3697 12.3691 13.1023 13.6365 13.1023 15.1999C13.1023 16.7633 14.3697 18.0307 15.9331 18.0307Z" fill="none" stroke="currentColor" stroke-width="1.5" stroke-linecap="round" stroke-linejoin="round" /><path d="M8.24067 19.3839C9.49818 19.3839 10.5176 18.3645 10.5176 17.107C10.5176 15.8495 9.49818 14.8301 8.24067 14.8301C6.98316 14.8301 5.96375 15.8495 5.96375 17.107C5.96375 18.3645 6.98316 19.3839 8.24067 19.3839Z" fill="none" stroke="currentColor" stroke-width="1.5" stroke-linecap="round" stroke-linejoin="round" />
</svg>
