<svg width="24" height="24" viewBox="0 0 24 24" fill="none" xmlns="http://www.w3.org/2000/svg">
<path d="M6.83325 8C7.93325 8 8.83325 7.1 8.83325 6C8.83325 4.9 7.93325 4 6.83325 4C5.73325 4 4.83325 4.9 4.83325 6C4.83325 7.1 5.73325 8 6.83325 8ZM12.8333 20C13.9333 20 14.8333 19.1 14.8333 18C14.8333 16.9 13.9333 16 12.8333 16C11.7333 16 10.8333 16.9 10.8333 18C10.8333 19.1 11.7333 20 12.8333 20ZM6.83325 20C7.93325 20 8.83325 19.1 8.83325 18C8.83325 16.9 7.93325 16 6.83325 16C5.73325 16 4.83325 16.9 4.83325 18C4.83325 19.1 5.73325 20 6.83325 20ZM6.83325 14C7.93325 14 8.83325 13.1 8.83325 12C8.83325 10.9 7.93325 10 6.83325 10C5.73325 10 4.83325 10.9 4.83325 12C4.83325 13.1 5.73325 14 6.83325 14ZM12.8333 14C13.9333 14 14.8333 13.1 14.8333 12C14.8333 10.9 13.9333 10 12.8333 10C11.7333 10 10.8333 10.9 10.8333 12C10.8333 13.1 11.7333 14 12.8333 14ZM16.8333 6C16.8333 7.1 17.7333 8 18.8333 8C19.9333 8 20.8333 7.1 20.8333 6C20.8333 4.9 19.9333 4 18.8333 4C17.7333 4 16.8333 4.9 16.8333 6ZM12.8333 8C13.9333 8 14.8333 7.1 14.8333 6C14.8333 4.9 13.9333 4 12.8333 4C11.7333 4 10.8333 4.9 10.8333 6C10.8333 7.1 11.7333 8 12.8333 8ZM18.8333 14C19.9333 14 20.8333 13.1 20.8333 12C20.8333 10.9 19.9333 10 18.8333 10C17.7333 10 16.8333 10.9 16.8333 12C16.8333 13.1 17.7333 14 18.8333 14ZM18.8333 20C19.9333 20 20.8333 19.1 20.8333 18C20.8333 16.9 19.9333 16 18.8333 16C17.7333 16 16.8333 16.9 16.8333 18C16.8333 19.1 17.7333 20 18.8333 20Z" fill="currentColor"/>
</svg>
