<svg width="24" height="24" viewBox="0 0 24 24" fill="none" xmlns="http://www.w3.org/2000/svg">
<path d="M12.1256 4.66116C15.4314 4.66116 16.8198 7.57025 17.1504 8.69422C17.5471 10.0827 17.2165 10.6777 17.5471 12.595C17.7454 13.8512 18.4066 14.9091 18.9355 15.5041C19.1338 15.7025 18.9355 16.0331 18.671 16.0331H12.8529H12.1256H5.38178C5.11732 16.0331 4.91897 15.7025 5.11732 15.5041C5.58013 14.9091 6.3074 13.8512 6.50575 12.595C6.77021 10.6777 6.50575 10.0827 6.90244 8.69422C7.23302 7.57025 8.68757 4.66116 12.1256 4.66116Z" stroke="currentColor" stroke-width="1.5" stroke-miterlimit="10"/>
<path d="M14.8363 16.0331C14.8363 16.1653 14.9024 16.3636 14.9024 16.4959C14.9024 18.0826 13.6462 19.3388 12.0594 19.3388C10.4726 19.3388 9.21643 18.0826 9.21643 16.4959C9.21643 16.3636 9.21643 16.2314 9.21643 16.0992" stroke="currentColor" stroke-width="1.5" stroke-miterlimit="10"/>
</svg>
