<svg width="24" height="24" viewBox="0 0 24 24" fill="none" xmlns="http://www.w3.org/2000/svg">
<path d="M12.1933 0.992188C17.152 0.992188 19.2346 5.35582 19.7305 7.04178C20.3255 9.12442 19.8297 10.017 20.3255 12.893C20.6231 14.7773 21.6148 16.3641 22.4082 17.2567C22.7057 17.5542 22.4082 18.05 22.0115 18.05H13.2842H12.1933H2.07762C1.68092 18.05 1.3834 17.5542 1.68092 17.2567C2.37514 16.3641 3.46605 14.7773 3.76357 12.893C4.16026 10.017 3.76357 9.12442 4.35861 7.04178C4.85448 5.35582 7.03629 0.992188 12.1933 0.992188Z" fill="none" stroke="currentColor" stroke-width="1.5" stroke-miterlimit="10" /><path d="M16.2595 18.0488C16.2595 18.2472 16.3586 18.5447 16.3586 18.743C16.3586 21.1232 14.4743 23.0075 12.0942 23.0075C9.71401 23.0075 7.82971 21.1232 7.82971 18.743C7.82971 18.5447 7.82971 18.3463 7.82971 18.148" fill="none" stroke="currentColor" stroke-width="1.5" stroke-miterlimit="10" />
</svg>
