<svg width="24" height="24" viewBox="0 0 24 24" fill="none" xmlns="http://www.w3.org/2000/svg">
<path d="M16.88 19.4303H7.12002C6.79748 19.4322 6.47817 19.3659 6.18309 19.2356C5.88802 19.1054 5.62385 18.9141 5.40795 18.6745C5.19206 18.4349 5.02933 18.1522 4.93046 17.8452C4.83159 17.5382 4.79882 17.2137 4.83431 16.8931L5.60002 10.1617C5.6311 9.88087 5.76509 9.62152 5.97615 9.43368C6.1872 9.24584 6.46035 9.14284 6.74288 9.14455H17.2572C17.5397 9.14284 17.8129 9.24584 18.0239 9.43368C18.235 9.62152 18.369 9.88087 18.4 10.1617L19.1429 16.8931C19.1782 17.2118 19.146 17.5343 19.0485 17.8398C18.951 18.1452 18.7903 18.4267 18.5769 18.666C18.3634 18.9053 18.1021 19.097 17.8097 19.2286C17.5174 19.3603 17.2006 19.429 16.88 19.4303Z" fill="none" stroke="currentColor" stroke-width="1.5" stroke-linecap="round" stroke-linejoin="round" /><path d="M7.42859 9.14369C7.42859 7.93128 7.91022 6.76852 8.76753 5.91121C9.62484 5.0539 10.7876 4.57227 12 4.57227C13.2124 4.57227 14.3752 5.0539 15.2325 5.91121C16.0898 6.76852 16.5714 7.93128 16.5714 9.14369" fill="none" stroke="currentColor" stroke-width="1.5" stroke-linecap="round" stroke-linejoin="round" /><path d="M9.14282 12.5723H14.8571" fill="none" stroke="currentColor" stroke-width="1.5" stroke-linecap="round" stroke-linejoin="round" />
</svg>
