<svg width="24" height="24" viewBox="0 0 24 24" fill="none" xmlns="http://www.w3.org/2000/svg">
<path d="M9.81672 6.15385L10.3459 4.78769C10.4352 4.55639 10.5922 4.35743 10.7965 4.21688C11.0007 4.07632 11.2426 4.00073 11.4906 4H12.4998C12.7477 4.00073 12.9896 4.07632 13.1939 4.21688C13.3981 4.35743 13.5552 4.55639 13.6444 4.78769L14.1736 6.15385L15.9706 7.18769L17.4229 6.96615C17.6647 6.93333 17.9108 6.97314 18.13 7.08052C18.3491 7.1879 18.5314 7.35801 18.6536 7.56923L19.1459 8.43077C19.2721 8.64535 19.3302 8.89314 19.3126 9.14144C19.2951 9.38974 19.2026 9.62687 19.0475 9.82154L18.149 10.9662V13.0338L19.0721 14.1785C19.2272 14.3731 19.3197 14.6103 19.3373 14.8586C19.3548 15.1069 19.2967 15.3546 19.1706 15.5692L18.6783 16.4308C18.556 16.642 18.3737 16.8121 18.1546 16.9195C17.9354 17.0269 17.6893 17.0667 17.4475 17.0338L15.9952 16.8123L14.1983 17.8462L13.669 19.2123C13.5798 19.4436 13.4227 19.6426 13.2185 19.7831C13.0143 19.9237 12.7723 19.9993 12.5244 20H11.4906C11.2426 19.9993 11.0007 19.9237 10.7965 19.7831C10.5922 19.6426 10.4352 19.4436 10.3459 19.2123L9.81672 17.8462L8.01979 16.8123L6.56749 17.0338C6.32566 17.0667 6.07954 17.0269 5.86039 16.9195C5.64124 16.8121 5.45896 16.642 5.33672 16.4308L4.84441 15.5692C4.71826 15.3546 4.66013 15.1069 4.67771 14.8586C4.69529 14.6103 4.78774 14.3731 4.94287 14.1785L5.84133 13.0338V10.9662L4.91826 9.82154C4.76313 9.62687 4.67068 9.38974 4.6531 9.14144C4.63552 8.89314 4.69364 8.64535 4.81979 8.43077L5.3121 7.56923C5.43435 7.35801 5.61662 7.1879 5.83577 7.08052C6.05492 6.97314 6.30105 6.93333 6.54287 6.96615L7.99518 7.18769L9.81672 6.15385ZM9.53364 12C9.53364 12.4868 9.67801 12.9628 9.94848 13.3676C10.219 13.7724 10.6034 14.0879 11.0532 14.2742C11.503 14.4605 11.9979 14.5092 12.4754 14.4142C12.9529 14.3193 13.3915 14.0848 13.7357 13.7406C14.08 13.3963 14.3144 12.9577 14.4094 12.4802C14.5044 12.0027 14.4557 11.5078 14.2693 11.058C14.083 10.6082 13.7675 10.2238 13.3627 9.95331C12.9579 9.68283 12.482 9.53846 11.9952 9.53846C11.3423 9.53846 10.7162 9.7978 10.2546 10.2594C9.79298 10.7211 9.53364 11.3472 9.53364 12V12Z" fill="none" stroke="currentColor" stroke-width="1.5" stroke-linecap="round" stroke-linejoin="round" />
</svg>
