<svg width="24" height="24" viewBox="0 0 24 24" fill="none" xmlns="http://www.w3.org/2000/svg">
<path d="M19.049 10.2637V16.5294C19.049 17.7602 18.042 18.7672 16.8112 18.7672H7.24478C6.01401 18.7672 5.00702 17.7602 5.00702 16.5294V10.2637" fill="none" stroke="currentColor" stroke-width="1.5" stroke-miterlimit="10" /><path d="M9.45456 5.25649V9.08866C9.45456 10.2635 8.50351 11.2425 7.32868 11.2425H6.9091C5.00701 11.2425 3.74826 9.31243 4.50351 7.57817L5.06295 6.26348C5.34267 5.62012 5.95805 5.22852 6.62938 5.22852L9.45456 5.25649Z" fill="none" stroke="currentColor" stroke-width="1.5" stroke-miterlimit="10" /><path d="M14.5455 5.25781V9.08998C14.5455 10.2648 15.4965 11.2438 16.6713 11.2438H17.0909C18.993 11.2438 20.2518 9.31376 19.4965 7.57949L18.9371 6.26481C18.6574 5.64942 18.042 5.25781 17.3706 5.25781H14.5455Z" fill="none" stroke="currentColor" stroke-width="1.5" stroke-miterlimit="10" /><path d="M12 11.4949C10.6014 11.4949 9.48254 10.3481 9.48254 8.97746V5.28516H14.5455V8.97746C14.5455 10.3761 13.3986 11.4949 12 11.4949Z" fill="none" stroke="currentColor" stroke-width="1.5" stroke-miterlimit="10" />
</svg>
