<svg width="24" height="24" viewBox="0 0 24 24" fill="none" xmlns="http://www.w3.org/2000/svg">
<path d="M16.88 19.4286H7.12002C6.79748 19.4305 6.47817 19.3642 6.18309 19.2339C5.88802 19.1037 5.62385 18.9124 5.40795 18.6728C5.19206 18.4332 5.02933 18.1505 4.93046 17.8435C4.83159 17.5365 4.79882 17.212 4.83431 16.8914L5.60002 10.16C5.6311 9.87916 5.76509 9.61981 5.97615 9.43197C6.1872 9.24413 6.46035 9.14113 6.74288 9.14284H17.2572C17.5397 9.14113 17.8129 9.24413 18.0239 9.43197C18.235 9.61981 18.369 9.87916 18.4 10.16L19.1429 16.8914C19.1782 17.2101 19.146 17.5326 19.0485 17.8381C18.951 18.1435 18.7903 18.425 18.5769 18.6643C18.3634 18.9035 18.1021 19.0952 17.8097 19.2269C17.5174 19.3586 17.2006 19.4273 16.88 19.4286Z" stroke="currentColor" stroke-width="1.5" stroke-linecap="round" stroke-linejoin="round"/>
<path d="M7.42859 9.14284C7.42859 7.93042 7.91022 6.76766 8.76753 5.91035C9.62484 5.05304 10.7876 4.57141 12 4.57141C13.2124 4.57141 14.3752 5.05304 15.2325 5.91035C16.0898 6.76766 16.5714 7.93042 16.5714 9.14284" stroke="currentColor" stroke-width="1.5" stroke-linecap="round" stroke-linejoin="round"/>
<path d="M9.14282 12.5714H14.8571" stroke="currentColor" stroke-width="1.5" stroke-linecap="round" stroke-linejoin="round"/>
</svg>
