<svg width="24" height="24" viewBox="0 0 24 24" fill="none" xmlns="http://www.w3.org/2000/svg">
<path d="M6 8C7.1 8 8 7.1 8 6C8 4.9 7.1 4 6 4C4.9 4 4 4.9 4 6C4 7.1 4.9 8 6 8ZM12 20C13.1 20 14 19.1 14 18C14 16.9 13.1 16 12 16C10.9 16 10 16.9 10 18C10 19.1 10.9 20 12 20ZM6 20C7.1 20 8 19.1 8 18C8 16.9 7.1 16 6 16C4.9 16 4 16.9 4 18C4 19.1 4.9 20 6 20ZM6 14C7.1 14 8 13.1 8 12C8 10.9 7.1 10 6 10C4.9 10 4 10.9 4 12C4 13.1 4.9 14 6 14ZM12 14C13.1 14 14 13.1 14 12C14 10.9 13.1 10 12 10C10.9 10 10 10.9 10 12C10 13.1 10.9 14 12 14ZM16 6C16 7.1 16.9 8 18 8C19.1 8 20 7.1 20 6C20 4.9 19.1 4 18 4C16.9 4 16 4.9 16 6ZM12 8C13.1 8 14 7.1 14 6C14 4.9 13.1 4 12 4C10.9 4 10 4.9 10 6C10 7.1 10.9 8 12 8ZM18 14C19.1 14 20 13.1 20 12C20 10.9 19.1 10 18 10C16.9 10 16 10.9 16 12C16 13.1 16.9 14 18 14ZM18 20C19.1 20 20 19.1 20 18C20 16.9 19.1 16 18 16C16.9 16 16 16.9 16 18C16 19.1 16.9 20 18 20Z" fill="currentColor"/>
</svg>
