<svg width="74.238" height="74.059" viewBox="0 0 74.238 74.059" xmlns="http://www.w3.org/2000/svg">
<path fill="currentColor" d="M360 3891c-150-48-258-176-281-334-11-82-11-3062 0-3144 24-161 136-291 290-337 49-14 211-16 1631-16s1582 2 1631 16c154 46 266 176 290 337 11 82 11 3062 0 3144-24 161-136 291-290 337-49 14-211 16-1635 15-1483 0-1584-1-1636-18zm3239-156c63-22 98-51 131-108l30-52V395l-30-52c-33-57-68-86-131-108-63-23-3135-23-3198 0-63 22-98 51-131 108l-30 52v3180l30 52c32 55 68 86 127 108 59 21 3141 22 3202 0z" style="clip-rule:evenodd;fill-rule:evenodd;image-rendering:optimizeQuality;shape-rendering:geometricPrecision;text-rendering:geometricPrecision" transform="matrix(.01924 0 0 -.01924 -1.361 75.213)"/><path fill="currentColor" d="M1043 2620c-142-29-257-130-304-267-17-51-19-85-19-368s2-317 19-368c39-113 126-204 238-248 54-22 73-23 276-24h219l24 28c31 36 31 71-1 102-24 25-26 25-208 25-226 0-268 10-337 79-59 59-70 94-70 222v97l31 6c17 3 152 6 300 6h268l20 26c27 34 27 64 0 98l-20 26h-268c-148 0-283 3-301 6l-32 7 3 117c4 108 6 120 32 158 36 56 97 98 158 111 27 6 129 11 225 11 172 0 175 0 199 25 32 31 32 66 1 102l-24 28-194 2c-106 1-212-3-235-7zm909-6c-109-29-192-99-241-203-22-48-26-70-26-146 0-82 3-97 33-157 37-75 96-133 170-169 35-17 76-24 163-30 131-9 151-15 198-55 119-100 77-295-73-339-37-11-103-15-251-15-198 0-202 0-223-23-30-32-29-77 4-108 26-24 26-24 257-24 215 1 236 2 287 23 80 32 153 100 192 180 30 60 33 75 33 157s-3 97-33 157c-36 75-96 133-170 169-36 17-74 24-163 30-86 6-127 13-157 28-124 63-148 217-49 319 51 53 102 62 333 62h203l20 26c31 39 27 77-10 108l-31 26-206-1c-146 0-223-5-260-15z" style="clip-rule:evenodd;fill-rule:evenodd;image-rendering:optimizeQuality;shape-rendering:geometricPrecision;text-rendering:geometricPrecision" transform="matrix(.01924 0 0 -.01924 -1.361 75.213)"/><path fill="currentColor" d="M55.8 24.824c-3 .577-5.483 2.982-6.156 5.964-.27 1.097-.27 11.371 0 12.468a7.853 7.853 0 0 0 6.234 5.964c1.75.327 7.484.27 8.158-.077.846-.423 1.077-1.539.48-2.309-.269-.365-.577-.384-4.367-.48-3.944-.097-4.117-.135-5.06-.616a4.604 4.604 0 0 1-2.309-2.81c-.385-1.25-.385-10.581 0-11.832.366-1.212 1.231-2.27 2.367-2.828.885-.462 1.116-.481 4.867-.539 3.694-.058 3.964-.096 4.387-.48.231-.213.423-.617.423-.924 0-1.54-.5-1.713-4.752-1.694-1.885.02-3.81.097-4.271.193z"/>
</svg>
