<svg width="74.222" height="74.043" viewBox="0 0 74.222 74.043" xmlns="http://www.w3.org/2000/svg"><g transform="matrix(.01924 0 0 -.01924 -1.36 75.197)" style="fill:var(--btcpay-body-text);" stroke="none" id="g919" style="clip-rule:evenodd;fill-rule:evenodd;image-rendering:optimizeQuality;shape-rendering:geometricPrecision;text-rendering:geometricPrecision"><path d="M360 3891c-150-48-258-176-281-334-11-82-11-3062 0-3144 24-161 136-291 290-337 49-14 211-16 1631-16s1582 2 1631 16c154 46 266 176 290 337 11 82 11 3062 0 3144-24 161-136 291-290 337-49 14-211 16-1635 15-1483 0-1584-1-1636-18zm3239-156c63-22 98-51 131-108l30-52V395l-30-52c-33-57-68-86-131-108-63-23-3135-23-3198 0-63 22-98 51-131 108l-30 52v3180l30 52c32 55 68 86 127 108 59 21 3141 22 3202 0z" id="path911" style="clip-rule:evenodd;fill-rule:evenodd;image-rendering:optimizeQuality;shape-rendering:geometricPrecision;text-rendering:geometricPrecision"/><path d="M1043 2620c-142-29-257-130-304-267-17-51-19-85-19-368s2-317 19-368c39-113 126-204 238-248 54-22 73-23 276-24h219l24 28c31 36 31 71-1 102-24 25-26 25-208 25-226 0-268 10-337 79-59 59-70 94-70 222v97l31 6c17 3 152 6 300 6h268l20 26c27 34 27 64 0 98l-20 26h-268c-148 0-283 3-301 6l-32 7 3 117c4 108 6 120 32 158 36 56 97 98 158 111 27 6 129 11 225 11 172 0 175 0 199 25 32 31 32 66 1 102l-24 28-194 2c-106 1-212-3-235-7z" id="path913" style="clip-rule:evenodd;fill-rule:evenodd;image-rendering:optimizeQuality;shape-rendering:geometricPrecision;text-rendering:geometricPrecision"/><path d="M1952 2614c-109-29-192-99-241-203-22-48-26-70-26-146 0-82 3-97 33-157 37-75 96-133 170-169 35-17 76-24 163-30 131-9 151-15 198-55 119-100 77-295-73-339-37-11-103-15-251-15-198 0-202 0-223-23-30-32-29-77 4-108 26-24 26-24 257-24 215 1 236 2 287 23 80 32 153 100 192 180 30 60 33 75 33 157s-3 97-33 157c-36 75-96 133-170 169-36 17-74 24-163 30-86 6-127 13-157 28-124 63-148 217-49 319 51 53 102 62 333 62h203l20 26c31 39 27 77-10 108l-31 26-206-1c-146 0-223-5-260-15z" id="path915" style="clip-rule:evenodd;fill-rule:evenodd;image-rendering:optimizeQuality;shape-rendering:geometricPrecision;text-rendering:geometricPrecision"/><path d="M2971 2619c-156-30-285-155-320-310-14-57-14-591 0-648 36-158 164-281 324-310 91-17 389-14 424 4 44 22 56 80 25 120-14 19-30 20-227 25-205 5-214 7-263 32-59 31-101 82-120 146-20 65-20 550 0 615 19 63 64 118 123 147 46 24 58 25 253 28 192 3 206 5 228 25 12 11 22 32 22 48 0 80-26 89-247 88-98-1-198-5-222-10z" /></g></svg>
