<svg width="84" height="29" viewBox="0 0 84 29" xmlns="http://www.w3.org/2000/svg">
<path fill-rule="evenodd" clip-rule="evenodd" d="M6.75 0h6.03c.07 0 .15.03.2.1.04.05.06.13.05.2L8.6 27.43a.26.26 0 0 1-.24.22l-6.63.38H1.7a.25.25 0 0 1-.19-.08.26.26 0 0 1-.06-.22L5.2 5.05C5.12 1.67 1 .85.49.73-.06.59 0 0 0 0h6.75Zm32.32.12a.25.25 0 0 0-.22-.12h-6.5c-.1 0-.18.05-.23.14l-8.98 17.4L20.08.2a.25.25 0 0 0-.24-.21h-6.55a.25.25 0 0 0-.2.1.26.26 0 0 0-.05.2l4.85 26.05a.25.25 0 0 0 .26.2l7.57-.43c.08 0 .16-.06.2-.14L39.08.38a.26.26 0 0 0-.01-.26Zm20.27 5.5a6.8 6.8 0 0 0-.53-2.08c-.27-.6-.61-1.1-1.01-1.5-.4-.41-.8-.75-1.23-1A8.23 8.23 0 0 0 52.9 0H40.47a.25.25 0 0 0-.25.2l-4.01 24.6c-.01.07.01.14.06.2.05.05.11.08.18.08h.02l6.25-.36c.11 0 .2-.1.22-.21l.75-4.63h6.08c1.39-.09 2.7-.43 3.89-1.03a9.75 9.75 0 0 0 2.99-2.46 9.9 9.9 0 0 0 2-4.76l.56-3.3c.17-1.02.21-1.93.13-2.71Zm-7.21 5.87a2.53 2.53 0 0 1-1.1 1.66c-.27.18-.64.27-1.1.27H44.7l1.1-7h5.3c.45 0 .78.09.97.27.22.2.38.41.47.65.1.27.13.6.1.95l-.52 3.2ZM83.75 0h-6.32c-.12 0-.23.1-.25.22l-2.25 14.34L70.04.17a.25.25 0 0 0-.23-.17H63.5c-.12 0-.23.1-.25.22l-3.86 24.56c-.01.07.01.16.06.22.05.05.12.08.19.08l6.43-.39c.12 0 .21-.1.23-.22l1.62-10.36 3.4 10.08c.04.1.14.17.25.17l8.58-.52c.11 0 .2-.1.23-.22L84 .3a.27.27 0 0 0-.06-.22.24.24 0 0 0-.19-.09Z" fill="#F34"></path>
</svg>
