<svg width="32" height="32" viewBox="0 0 32 32" fill="none" xmlns="http://www.w3.org/2000/svg">
<path d="M26.5362 7.08746H25.9614V3.25512C25.9614 2.10542 25.3865 1.14734 24.6201 0.572488C23.8536 -0.00236247 22.7039 -0.193979 21.7458 -0.00236246L4.11707 5.36291C2.00929 5.93776 0.667969 7.85392 0.667969 9.96171V12.0695V12.836V27.3988C0.667969 30.0815 2.77575 32.1893 5.45839 32.1893H26.5362C29.2189 32.1893 31.3267 30.0815 31.3267 27.3988V12.0695C31.3267 9.38686 29.2189 7.08746 26.5362 7.08746ZM4.69192 7.08746L22.129 1.91381C22.5123 1.72219 23.0871 1.91381 23.4704 2.10542C23.8536 2.29704 24.0452 2.87189 24.0452 3.25512V7.08746H5.45839C4.88354 7.08746 4.5003 7.27908 3.92545 7.47069C4.11707 7.27908 4.5003 7.08746 4.69192 7.08746ZM29.4105 27.2072C29.4105 28.7402 28.0692 30.0815 26.5362 30.0815H5.45839C3.92545 30.0815 2.58414 28.7402 2.58414 27.2072V12.836V11.8779C2.58414 10.3449 3.92545 9.00362 5.45839 9.00362H26.5362C28.0692 9.00362 29.4105 10.3449 29.4105 11.8779V27.2072Z" fill="currentColor"/><path d="M25.9591 21.6487C27.0174 21.6487 27.8753 20.7908 27.8753 19.7326C27.8753 18.6743 27.0174 17.8164 25.9591 17.8164C24.9009 17.8164 24.043 18.6743 24.043 19.7326C24.043 20.7908 24.9009 21.6487 25.9591 21.6487Z" fill="currentColor"/>
</svg>
